<svg xmlns="http://www.w3.org/2000/svg" viewBox="0 0 750 1334"><defs><style>.cls-1{isolation:isolate;}.cls-2{fill:#f3ffc4;}.cls-3{fill:#ffe175;}.cls-4{fill:#fdd8ae;}.cls-5{fill:#fff;}.cls-22,.cls-6{fill:#1e8779;}.cls-7{fill:#f25a29;}.cls-8{fill:#0f0f0f;}.cls-9{fill:#115045;}.cls-10{fill:none;}.cls-11,.cls-12{fill:#f58876;}.cls-12,.cls-17{opacity:0.3;}.cls-12,.cls-17,.cls-18,.cls-20{mix-blend-mode:multiply;}.cls-13{fill:#625245;}.cls-14{fill:#fee274;}.cls-15{fill:#414143;}.cls-16,.cls-21{fill:#fb745e;}.cls-18,.cls-20{opacity:0.2;}.cls-19,.cls-20{fill:#898989;}.cls-21{font-size:67.72px;letter-spacing:0.05em;}.cls-21,.cls-22{font-family:FrenteH1-Regular, Frente H1;}.cls-22{font-size:74px;letter-spacing:0.05em;}.cls-23{letter-spacing:0.04em;}.cls-24{letter-spacing:0.05em;}.cls-25{letter-spacing:0.07em;}</style></defs><title>Artboard 1</title><g class="cls-1"><g id="Layer_1" data-name="Layer 1"><rect class="cls-2" width="750" height="1334"/><g id="_Group_" data-name="&lt;Group&gt;"><path d="M371.18,688.86a1.6,1.6,0,0,1-.13,2.15,1.55,1.55,0,0,1,.07.4c.22,8-7.52,15-13.66,18.83-6.31,4-15.7,7.54-22.26,2.15l0,0a1.31,1.31,0,0,1-1-.48,36.86,36.86,0,0,1-7.86-16.1c-1-4.58-1.12-10,2-13.52-14.07-.8-28.7-13.22-27.9-27.72a1.51,1.51,0,0,1,1.58-1.44,1.32,1.32,0,0,1,1.41,1.44c-.74,13.58,14.25,25.58,27.43,24.78.17-6.13.84-12.37-.48-18.4a1.54,1.54,0,0,1,0-.78,1.47,1.47,0,0,1-.29-.3l0,0c-8.14-4-17.26-5.38-26-7.32a1.4,1.4,0,0,1-.7-.37l-.1.18A1.39,1.39,0,0,1,302,653a1.67,1.67,0,0,1-1.47-.92c-5.91-.46-11.18-3.8-15.2-8.25q-5.38,7.41-11,14.64c1.58,4.43,3.35,8.79,5.24,13.1,8.15,18.56,18.39,37.06,20.62,57.53a60.89,60.89,0,0,1-2.94,27.38c-2.9,7.92-7.58,15.65-14.77,20.31q21.13,34.75,42.76,69.2a1.32,1.32,0,0,1-.26,1.79,1.69,1.69,0,0,1-.28.26c-.94.69-1.87,1.36-2.82,2-6.8,4.76-14.26,8.35-21.73,11.94-6.71,3.21-13.51,6.26-20.43,9a1.41,1.41,0,0,1-.17,2.2c-1.91,29.46,4.44,58.82,3.87,88.29l.22,0a45.74,45.74,0,0,1,12.31,4.13,1.25,1.25,0,0,1,.76,1.17c1.44.23,1.89,2.55.21,2.9-9.78,2-19.91,1.11-29.62-.92a1.16,1.16,0,0,1-1-.4,1.23,1.23,0,0,1-.39-.72c-6.65-14.62-13.41-29.2-19.58-44-3.14-7.53-6-15.13-8.89-22.77-2-5.45-4.47-10.73-6.36-16.23q-10.44,1.81-21,2.78c-10.87,1-21.79,1.37-32.7,1.38q-3.62,0-7.25,0c-2.22,6.71-4.34,13.44-6.87,20s-5.25,13.28-8.05,19.84c-5.59,13.1-11.56,26-17.46,39a1.25,1.25,0,0,1-.39.72,1.16,1.16,0,0,1-1,.4c-9.71,2-19.84,2.94-29.63.92-1.67-.35-1.23-2.66.21-2.9a1.25,1.25,0,0,1,.77-1.17,45.72,45.72,0,0,1,12.31-4.13l.22,0c-.61-25.83.28-51.69-1.66-77.48a110.11,110.11,0,0,1-31-11.73,1.34,1.34,0,0,1-.72-1.28,1.49,1.49,0,0,1,0-.4q2-9.36,4.58-18.58a320.39,320.39,0,0,1,39.4-87,1.67,1.67,0,0,1-.28-.32c-9.38-13.9-19-27.94-25.88-43.2-3.71,4.33-8.36,8.05-13.82,9.81S79.4,732.46,75,728.63c-5.61-4.85-8.44-13.07-8.1-20.36.74-16,13.31-28.61,24.3-39.06A10.47,10.47,0,0,1,95,662a1.55,1.55,0,0,1,.62-1.47,22.38,22.38,0,0,1,11.15-4.42,1.38,1.38,0,0,1,.27-.71c4.62-6.58,9.73-13.07,16.58-17.44,2.08-2.32,4.25-4.54,6.5-6.63,6.45-6,14-11.65,22.46-14.51a113.5,113.5,0,0,1-27.52-14.42c-3.28,10.12-13.74,15.64-23.71,17.66.33,12.27-10.32,26.46-23,27.38a1.66,1.66,0,0,1-1.46.91,1.38,1.38,0,0,1-1.21-.71l-.1-.18a1.41,1.41,0,0,1-.7.37c-8.78,1.94-17.89,3.32-26,7.32l0,0a1.72,1.72,0,0,1-.3.3,1.53,1.53,0,0,1,0,.78c-1.32,6-.65,12.27-.48,18.4,13.18.8,28.17-11.19,27.43-24.78a1.32,1.32,0,0,1,1.41-1.44,1.51,1.51,0,0,1,1.58,1.44c.79,14.49-13.84,26.92-27.91,27.72,3.08,3.51,3,9,2,13.51-1.33,5.69-3.93,11.7-7.86,16.1a1.34,1.34,0,0,1-1,.48l0,0c-6.51,5.35-16,1.87-22.26-2.15S7.53,694.78,7.74,686.77a1.54,1.54,0,0,1,.07-.41,1.59,1.59,0,0,1-.13-2.14c6-7.37,16-15.32,25.93-13.73-5-9.73-.59-24.7,9.23-29.33a1.62,1.62,0,0,1,2.27,1.62,1.24,1.24,0,0,1-.76,1c-9.54,4.49-13.34,20.37-6,28.29h0a1.33,1.33,0,0,1,.66.67c.21.2.42.38.64.57l.1.09a15.57,15.57,0,0,1,4.79,1.11,1.4,1.4,0,0,1,.48-.12c-.18-6.3-.77-12.64.59-18.85a1.39,1.39,0,0,1,.48-.81,35.56,35.56,0,0,1-.46-11.85c1.5-12.55,8.91-25.33,22.56-21.15-1.5-7.33,2.44-15.21,7.56-20.33,4.58-4.58,11.59-10.16,18.51-9.16a1.43,1.43,0,0,1,.43.14,34.32,34.32,0,0,1,5.09-14.48,113.92,113.92,0,0,1-9.49-14.79,22.12,22.12,0,0,1-12.09,3.16c-16.93-.73-30-17.18-31.25-33.31-.62-8.23,1.76-17.19,8.08-22.84a21.46,21.46,0,0,1,21.77-4.37,114.71,114.71,0,0,1,228.75-8.9c2.47,1.84,4.82,5,6.74,7a41.61,41.61,0,0,1,4.43-10.46c2-3.56,5-8.68,9.3-9.68a5.21,5.21,0,0,1,5.21,1.42c1.41,1.61,1.46,3.94,1.23,6a23.08,23.08,0,0,1-.44,2.5l.49-.49c2.5-2.42,6.62-5.22,10.19-3.09,3,1.79,1.83,5.57.59,8.14a5.1,5.1,0,0,1,4.15.39c3.6,2,3.2,6.15,2,9.8,0,.06,0,.13,0,.19a280,280,0,0,1-18.38,57.11,382.38,382.38,0,0,1-23.94,45.59c2.78,4.51,4.52,9.91,3.47,15.12,13.65-4.18,21.06,8.6,22.56,21.15a35.6,35.6,0,0,1-.46,11.85,1.34,1.34,0,0,1,.48.8c1.36,6.21.77,12.55.59,18.85a1.41,1.41,0,0,1,.48.11,15.63,15.63,0,0,1,4.79-1.11l.1-.09c.22-.18.43-.37.64-.56a1.32,1.32,0,0,1,.66-.67h0c7.36-7.92,3.56-23.8-6-28.29a1.23,1.23,0,0,1-.76-1A1.62,1.62,0,0,1,336,645.8c9.82,4.62,14.27,19.6,9.23,29.33C355.17,673.55,365.22,681.49,371.18,688.86Zm-3,2.55a1.34,1.34,0,0,1,.42-1.06c-6-7.13-16.6-15.76-26.21-11.25-.33.32-.67.63-1,.93a1.87,1.87,0,0,1-.3.19,1.39,1.39,0,0,1-1.25.74,11.91,11.91,0,0,0-3.54.61,1.57,1.57,0,0,1,.05.39v2.49a1.5,1.5,0,0,1-3,0v-1.89a1.61,1.61,0,0,1-1,.34c-4.58,2.65-4,8.78-2.76,13.22,1.31,4.79,3.47,9.91,6.82,13.66l.11.14a1.55,1.55,0,0,1,.89.36c5.4,4.43,14,.4,19-2.83a33.43,33.43,0,0,0,8.51-7.72C366.57,697.32,368.22,694.51,368.13,691.41Zm-21.38-184.1c.85-2.63,1.31-5.73-1-6.31-1.77-.44-3.63,1.16-4.82,2.28a31,31,0,0,0-2.59,2.78l-.58.82a1.67,1.67,0,0,1-.38.38c-1.16,1.43-3.69,0-2.54-1.56.34-.45.73-1,1.16-1.49a66.26,66.26,0,0,0,3.75-5.63c.45-.79,3.06-5.08,1.71-5.89-2.74-1.63-6,1.59-7.62,3.41-2.14,2.37-4.38,5.29-5.22,8.43a1.55,1.55,0,0,1-2.88-1.13c1.05-3.71,2.79-7.18,3.57-11,.31-1.47.81-3.69-.07-5.08-.68-1.07-2.14-1-3.15-.45-3.47,1.86-5.69,6-7.41,9.33a34.52,34.52,0,0,0-3.67,9.64,1.19,1.19,0,0,1-1.23,1.08,1.59,1.59,0,0,1-2.26.25c-2-1.68-8.95-12.83-11.43-7-1.12,2.63.41,6.09,1.61,8.41a41.89,41.89,0,0,0,3.36,5.46c.34.34.69.67,1,1,0,.12,0,.24,0,.35l.24.31a1.63,1.63,0,0,1-.42,2.39,115.11,115.11,0,0,1-2.55,16.65,16.46,16.46,0,0,0,4.37,4.71,41.59,41.59,0,0,0,8.68,5.1,45.18,45.18,0,0,0,10,3.24,16.73,16.73,0,0,0,7.66.06,1.39,1.39,0,0,1,1,.07,270.22,270.22,0,0,0,10.57-35.61,1.55,1.55,0,0,1-.2-1.62c.27-.6.74-1.68,1.16-2.9v-.06A1.62,1.62,0,0,1,346.75,507.31ZM331.91,556q1-2.53,2-5.09a21.23,21.23,0,0,1-8.33-.28,49,49,0,0,1-10.74-3.54c-4.2-1.92-9.3-4.63-12.49-8.5-.37,1.39-.77,2.78-1.19,4.15,7.64,8,19,12.26,30,13A1.48,1.48,0,0,1,331.91,556Zm-1.69,100.59a34,34,0,0,0-2.77-19.26c-1.48-3.08-3.55-6.11-6.67-7.72-3.37-1.73-7.07-1.32-10.52,0a1.55,1.55,0,0,1-.48.1c-1.31,6.65-2.21,13.58-5.08,19.75a1.88,1.88,0,0,1,.21.2C313.46,651.55,322.21,653,330.22,656.64Zm-25.6-47a373,373,0,0,0,26.19-50.92c-11.09-.79-22.61-4.9-30.69-12.74a114.25,114.25,0,0,1-27.49,44c-.71.71-1.43,1.41-2.16,2.1a1.36,1.36,0,0,1-.38,1.4,336.74,336.74,0,0,0-27.35,30.32h0c11.67,17.19,19.94,36.07,26,55.71a73.69,73.69,0,0,0-2.49-15.65A1.47,1.47,0,0,1,267.8,662a1.88,1.88,0,0,1,.18-.27A525.18,525.18,0,0,0,302,614q.87-1.39,1.73-2.79A1.39,1.39,0,0,1,304.62,609.65ZM302,857.82a144.28,144.28,0,0,0,19.93-11.43q-32-50.86-62.81-102.45a1.34,1.34,0,0,1-.14-1.21c1.49-7.25,3.23-14.44,4.84-21.66-6.21-32.72-23.1-62.37-38.81-91.48a33.05,33.05,0,0,0-4.23,2.41,1.25,1.25,0,0,1,1.4.73c1.55,3.1,3.45,6.46,3,10.06a10.21,10.21,0,0,1-6,7.55A15.17,15.17,0,0,1,202.37,647c-5.48,4.43-13.5,9-20.72,7.27-8.47-2-6.7-11.63-4.23-17.74l-.16-1.58h-.2c-7.57-.44-14.89,1.57-22,3.93a1.47,1.47,0,0,1-.38.08A156.23,156.23,0,0,0,141,654.53c-6.89,8.83-15.59,16.37-21.37,26a1.63,1.63,0,0,1-.34.4,12.64,12.64,0,0,1,0,2.33,1.47,1.47,0,0,1-.84,1.25,19,19,0,0,1-1,2.25,1.42,1.42,0,0,1,.25.58,121.07,121.07,0,0,0,7.17,21.29l6-3a131.59,131.59,0,0,1,2.52-35.24c.42-1.88,3.3-1.08,2.88.8-2.85,12.76-3.16,26.28-2.11,39.28s3.4,26.76,10.51,37.8a1.17,1.17,0,0,1,.16,1.51,1.37,1.37,0,0,1-.14.2q-5.3,7.17-10.21,14.62A315.49,315.49,0,0,0,89.9,870.26c13.05,7.33,27.57,11.22,42.33,13.26a1.59,1.59,0,0,1,.51-.05,81.67,81.67,0,0,1,9.42,1.17q2.27.2,4.53.35c7.33.5,14.67.74,22,.82a1.64,1.64,0,0,1,.63,0q5,0,9.92,0c10.69-.07,21.4-.45,32-1.5a259.24,259.24,0,0,0,35.72-6l.84-.26a1.6,1.6,0,0,1,.43-.05,235.47,235.47,0,0,0,24.92-7.65A307.37,307.37,0,0,0,302,857.82Zm5.7-232.1c.76-4-.35-8-2.3-11.6q-3,4.82-6.11,9.56C302.12,624.22,304.92,624.91,307.69,625.71Zm-.83,3.43a1.14,1.14,0,0,1,0-.56c-2.9-.84-5.84-1.56-8.81-2.11a1.55,1.55,0,0,1-.47-.17q-5.08,7.64-10.45,15.1c3.65,4.17,8.71,7.77,14.37,7.86C304.67,643.06,305.54,635.92,306.86,629.14Zm-4.74-107.07q.36-3.06.56-6.17a36.76,36.76,0,0,1-4.08-6.79,1.52,1.52,0,0,1-.41-.26c-6.19-5.38-12.35-10.81-18.4-16.34-7.27-6.66-14.44-13.46-21.24-20.6-1.68-1.77-3.35-3.55-5-5.36q-1.1-1.22-2.17-2.45c-.6-.68-.84-1.52-1.41-2.18-3.14-3.63-6.14-7.38-9-11.27A250.79,250.79,0,0,1,225,425.38a158.68,158.68,0,0,1-11.55-25.72,110.67,110.67,0,0,0-13.88-1.88,1.37,1.37,0,0,1-.26.8c-1.8,2.67-3.41,5.47-5.21,8.14a65.63,65.63,0,0,1-5,6.36,173.09,173.09,0,0,1-12.35,12.76c-26.7,25-59.65,41.89-93.19,55.76a111,111,0,0,0-3.27,22.26c16.88-1.59,32.26-8.5,46.72-17.1,7.87-4.68,15.57-9.66,23.36-14.47a201.9,201.9,0,0,0,18.31-12.64,11.68,11.68,0,0,0-4.91-.11c-4.84.91-9,3.67-12.48,7.09-1.37,1.35-3.49-.76-2.11-2.11,4.14-4.08,9.48-7.57,15.4-8.08a14.94,14.94,0,0,1,6.88,1l.78-.63c13.55-11.22,25.59-24.67,32.62-41a1.24,1.24,0,0,1,.3-.64,1.21,1.21,0,0,1,1.74-.34,1.43,1.43,0,0,1,.93,1.31c.83,18.14,7.92,35.73,17.59,51a17.7,17.7,0,0,1,7-2.62,22.18,22.18,0,0,1,15.22,3.76c1.61,1,.11,3.64-1.51,2.58a19.5,19.5,0,0,0-12.88-3.46A14.82,14.82,0,0,0,227,469.6a139,139,0,0,0,24.45,28,11,11,0,0,0,3.25-2.14c1.39-1.34,3.51.78,2.11,2.11a13.93,13.93,0,0,1-2.89,2.13c2,1.65,4,3.24,6.14,4.75,12.25,8.84,26.37,15.67,41.52,17.43A1.6,1.6,0,0,1,302.12,522.07Zm-4.35-24c1.38-2,2.84-2.81,4.3-2.76q-.38-3.08-.92-6.11c-22.56-23.79-43.27-49.93-58.31-79.18a110.62,110.62,0,0,0-26-9.65A146.36,146.36,0,0,0,225,419.14a250.24,250.24,0,0,0,15.6,25.73c2.78,4,5.7,8,8.83,11.77.88,1.06,1.77,2.12,2.68,3.16.59.68.84,1.53,1.41,2.18q2.18,2.48,4.43,4.91c12.16,13.08,25.46,25.07,38.9,36.82A7.63,7.63,0,0,1,297.77,498.1Zm4,26.79h-.18c-18.94-2.19-36.32-11.62-50.72-23.86-.55.17-1.11.31-1.68.44a14.6,14.6,0,0,1-.15,7.86c-2,6.75-8.34,11.41-15.48,10.58a13.66,13.66,0,0,1-12-10.73A18.38,18.38,0,0,1,225,494.3a12.58,12.58,0,0,1,14.21-4l.19.06.17.07.28.11a142.68,142.68,0,0,1-15.23-19.11,17.37,17.37,0,0,0-2.42,2.83c-1.08,1.58-3.67.09-2.58-1.51a21.13,21.13,0,0,1,3.36-3.84q-3-4.72-5.59-9.66c-6.09-11.65-10.62-24.28-12.13-37.37-7.28,14.47-18.51,26.77-31,37l0,0a20.29,20.29,0,0,1,5.08,4.89c1.16,1.54-1.44,3-2.58,1.51a15.92,15.92,0,0,0-4.95-4.42,201.67,201.67,0,0,1-19.12,13.42c-7.77,4.82-15.46,9.77-23.32,14.46C114.12,497.9,98,505.2,80.13,506.84c0,.68,0,1.36,0,2a111.56,111.56,0,0,0,98,110.59q.06,1.16.15,2.31a1.52,1.52,0,0,1,.83,1.24l1.26,12.52a1.09,1.09,0,0,1,.3.89c9.51,9.54,30.38,10,36.77-3.22-.37-4.41.47-8.77.52-13.17a1.47,1.47,0,0,1,.17-.7c.11-.78.2-1.56.29-2.34a111.77,111.77,0,0,0,81.57-82.52l-.14-.39a1.3,1.3,0,0,1,.59-1.6Q301.19,528.73,301.74,524.89ZM285.48,770.5c13.61-14.26,14.13-36.21,9.15-54.17-5.33-19.19-15.58-36.45-22.48-55l-2.06,2.61a1.32,1.32,0,0,1-.61.46,84.41,84.41,0,0,1,2.3,24.7,1.53,1.53,0,0,1-.12.53c3.38,12.48,6,25.2,8.11,37.94.32,1.89-2.56,2.69-2.88.8q-.52-3.1-1.07-6.19c-6.62-36.93-17.8-73.36-40.62-103.69-1.16-1.54,1.44-3,2.58-1.51s2.14,2.88,3.18,4.35c4.75-6,9.79-11.83,15-17.46a113.42,113.42,0,0,1-35.1,16,1.32,1.32,0,0,1,0,.21c0,2.9-.41,5.79-.56,8.69a34.48,34.48,0,0,1,3.27-1.77l-1-1.88c-.91-1.7,1.67-3.21,2.58-1.51,3,5.54,6,11.06,8.94,16.6,13.42,25,26.65,51.07,32.28,78.88a1.45,1.45,0,0,1,.59,1.55l-.15.69a135,135,0,0,1,2.38,26.54,1.53,1.53,0,0,1-2.8.77,1.48,1.48,0,0,1-.19-.77,129.76,129.76,0,0,0-.86-16.76c-.08-.71-.17-1.42-.27-2.13-1.06,4.65-2.13,9.3-3.1,14l3.69,6.13q7.6,12.63,15.25,25.22A25.3,25.3,0,0,0,285.48,770.5Zm7.17,196.93a42.21,42.21,0,0,0-9.83-3,1.23,1.23,0,0,1-.95-.66,1.38,1.38,0,0,1-1.47-1.44c.05-2.28.06-4.55,0-6.82a40.44,40.44,0,0,1-17.18-.63L268.32,966C276.27,967.62,284.57,968.5,292.65,967.43ZM300,483.64a111.78,111.78,0,0,0-52.4-71C261.55,438.64,279.93,462.1,300,483.64Zm-19.6,468.81c0-1.41-.08-2.83-.13-4.24-7,0-14.19,0-21-2.07q1.31,2.9,2.63,5.8a1.37,1.37,0,0,1,1.19-.18A37.33,37.33,0,0,0,280.39,952.45Zm-.27-7.23c-1.17-23.46-5-46.87-3.68-70.35-12.69,6.63-26,12.39-39.91,15.93,1.26,3.09,2.56,6.17,3.71,9.3,2.74,7.45,5.59,14.86,8.65,22.18,2.86,6.86,5.85,13.67,8.89,20.46a1.37,1.37,0,0,1,.85,0C265.54,945.18,272.89,945.22,280.12,945.22ZM244.34,512.27c4.42-6.59,1.86-16.12-5.75-19a14.7,14.7,0,0,0-1.8-.53c-10.77-2.23-16.76,13.9-9.65,21C231.94,518.49,240.48,518,244.34,512.27Zm-7.42,375.34a11.05,11.05,0,0,1-1.67,0l.16.42h0Zm-.77-3.68v-.21l-.3.06Zm-13.88-242c0-2.54-1.23-4.87-2.36-7.09-2.9,5.93-8.39,9.44-14.62,10.82a12.12,12.12,0,0,0,12,2.26C219.64,647,222.25,644.7,222.26,641.93ZM188.64,409c3-3.53,5.16-7.59,7.69-11.42-1.6-.07-3.21-.11-4.83-.11a111.45,111.45,0,0,0-21.32,2.06,1.58,1.58,0,0,1-.32.47,337.92,337.92,0,0,1-77,57.66,1.62,1.62,0,0,1-.39.16,110.9,110.9,0,0,0-8,20.14c9.25-3.86,18.41-7.94,27.39-12.39,16.57-8.2,32.64-17.56,47.32-28.83a196.89,196.89,0,0,0,21-18.49C183.07,415.28,186,412.22,188.64,409Zm9.72,237.33c-7-.11-14-2.51-18.87-6.86-1.59,4.7-2.61,11.1,3.44,12C188.21,652.3,193.92,649.53,198.37,646.34ZM177,632l-.9-9a1.58,1.58,0,0,1,0-.44,114.36,114.36,0,0,1-18.39-4c-9.88,2.09-18.63,8.44-25.83,15.28q-2.88,2.73-5.57,5.7a1.46,1.46,0,0,1-.6.68h0a83.57,83.57,0,0,0-11.78,16.85,13.19,13.19,0,0,1,5.39,4,17.69,17.69,0,0,1,1.45,2.05c4.47-5.11,8.6-10.51,12.94-15.73,1.23-1.48,3.33.65,2.11,2.11-4.58,5.51-8.92,11.22-13.68,16.57.62,1.95.67,4-.58,5.56-.1.13-.22.25-.34.38a6.92,6.92,0,0,1-5.29,1.91,12.93,12.93,0,0,1,2.28,3.28c1.18-1.8,2.44-3.54,3.77-5.23,5.31-6.75,11.61-12.79,16.89-19.52,7.34-9.36,15.43-18.11,25-25.21,1.55-1.15,3,1.45,1.51,2.58-1.95,1.44-3.83,3-5.65,4.54A52.76,52.76,0,0,1,177,632Zm-10,256.79h-.52a1.53,1.53,0,0,1,0,1.43c-.11.23-.21.47-.32.71a1.45,1.45,0,0,1-.41,1c-.22.54-.44,1.09-.69,1.62a1.38,1.38,0,0,1,.34.15Zm-6.16,18.09c1.31-3.46,2.5-7,3.66-10.46a101.34,101.34,0,0,1-22.88-2.91,83.75,83.75,0,0,1-20-7.17c1.29,18.65,1.16,37.34,1.26,56a71,71,0,0,0,20.35,4.36,1.6,1.6,0,0,1,.66.21c3-6.55,5.88-13.12,8.69-19.73S158.18,913.7,160.76,906.87Zm-20.62,48.25,2.49-5.47a74.4,74.4,0,0,1-19.75-4.1c0,1.88,0,3.76,0,5.63l.26.07C128.67,953.19,134.52,953.68,140.14,955.12Zm.49-204.5a1.5,1.5,0,0,1-.53-.73c-7.18-20.34-19.59-38.76-24.78-59.81a15.57,15.57,0,0,1-4.22,3.49A31,31,0,0,1,99.72,697a105.54,105.54,0,0,0,6.46,20.74,1.19,1.19,0,0,1,.42,1c6.69,15.49,16.4,29.67,25.88,43.71Q136.42,756.41,140.62,750.62ZM135.19,966l3.69-8.09c-5.29-1.3-10.75-1.83-15.92-3.55q.05,4,.15,8a1.37,1.37,0,0,1-1.47,1.44,1.24,1.24,0,0,1-.95.66,42.29,42.29,0,0,0-9.83,3C118.94,968.5,127.24,967.62,135.19,966Zm-40-513a335,335,0,0,0,69.74-52.29A111.82,111.82,0,0,0,95.18,453Zm38.27,274a135.93,135.93,0,0,1-2.2-16.51c0-.53-.08-1.06-.11-1.6l-5,2.51C128.45,716.63,131,721.8,133.45,727ZM122.33,601.21a1.58,1.58,0,0,1,.3-.56,115.87,115.87,0,0,1-20.86-20.28c-6.55,11.15-4.66,24.75-2.14,37C109,615.71,119.43,610.91,122.33,601.21Zm-3.18,68.55a3.52,3.52,0,0,0,.21-2.79,1.62,1.62,0,0,1-.53-1.35,14.15,14.15,0,0,0-3.21-4.09c-5.22-4.43-12.72-2.41-17.85,1.17a1.51,1.51,0,0,1-.64,1.46,7.21,7.21,0,0,0-2.89,4.49,1.44,1.44,0,0,1,.32,1,1.75,1.75,0,0,1,.42-.24,20.66,20.66,0,0,1,15.1.58,1.28,1.28,0,0,1,1.13-.08C113,670.54,117.78,672.1,119.16,669.76Zm-4,15.05a17.37,17.37,0,0,0,1.15-3.5c-1-8.64-13.2-11.92-20.48-9a1.19,1.19,0,0,1-1.44-.34,1.43,1.43,0,0,1-.95,1.75,1.16,1.16,0,0,1,.45,1.53,38.71,38.71,0,0,0-2.09,6.71l.25-.08C98.94,680.24,110.69,677.73,115.11,684.81ZM111,656.28q1.15-2.27,2.45-4.47c-1.12,1.43-2.19,2.89-3.23,4.36ZM109.59,691a13.6,13.6,0,0,0,3.67-3.15c-2.64-7.6-14.75-4.43-20.46-3.11a1.43,1.43,0,0,1-1.46-.46c-.94,6.7.28,13.63,6.35,17.38q-.54-2.23-1-4.49a1.55,1.55,0,0,1,0-2.66,1.58,1.58,0,0,1,2.24-.41C102.61,693.63,106.4,692.88,109.59,691Zm-6.34,27.48q-.9-2.16-1.73-4.35c-8.53-1-15.62-8.29-19.14-15.76a23.8,23.8,0,0,1-2.41-13,48.43,48.43,0,0,0-8.44,14.5c-2.63,7.72-2.21,16.29,2.49,23.18,3.37,4.94,8.76,7.32,14.63,5.76S99.53,723.18,103.25,718.46Zm-2.86-7.52q-1.12-3.29-2-6.67a1.4,1.4,0,0,1-1.73.22c-10.68-6.08-9.77-20.18-5.67-30.07a1.55,1.55,0,0,1,1-.91,1.31,1.31,0,0,1-.39-.52q-1.9,1.84-3.76,3.71a1.56,1.56,0,0,1-.62,1.38c-6.15,4.74-5.05,13.31-1.86,19.47C88.31,703.31,93.68,709.55,100.39,710.94Zm-2.1-88.5a1.26,1.26,0,0,1-.84-1,1.6,1.6,0,0,1-.46,0c-8.38-1.41-16.89.11-25,2.45a1.15,1.15,0,0,1,0,.56c1.32,6.78,2.19,13.92,5.39,20.12,5.53-.08,10.64-3.55,14.16-7.63S97.78,627.82,98.29,622.43Zm-1.48-4c-1.57-7.63-2.9-15.73-2.35-23.53a1.57,1.57,0,0,1-1,.16c-3-.43-6.16,1.29-8.58,2.8a37.48,37.48,0,0,0-7.29,5.87c-4.31,4.52-7.67,11-6.46,17.31C79.5,618.64,88.17,617.2,96.81,618.45Zm-7.87-58a114.2,114.2,0,0,1-12.16-51.49c-8-3.61-17.7-.58-22.63,6.71s-5.34,16.4-2.73,24.49,7.85,15.29,15.17,19.52C73.61,563.69,81.83,564.63,88.95,560.42Zm-15,84.6a1.56,1.56,0,0,1,.22-.2c-2.87-6.18-3.77-13.1-5.08-19.75a1.57,1.57,0,0,1-.48-.1c-3.49-1.28-7.42-1.74-10.78.19a16.45,16.45,0,0,0-6.41,7.58A34.55,34.55,0,0,0,48.64,652C56.65,648.34,65.4,646.9,73.95,645ZM49.36,691.47c1.16-4.46,1.85-10.56-2.76-13.23a1.6,1.6,0,0,1-1-.34v1.89a1.5,1.5,0,0,1-3,0V677.3a1.53,1.53,0,0,1,.05-.38,11.87,11.87,0,0,0-3.54-.61,1.38,1.38,0,0,1-1.25-.74,1.57,1.57,0,0,1-.3-.19c-.36-.29-.7-.61-1-.92-9.61-4.51-20.26,4.12-26.22,11.25a1.34,1.34,0,0,1,.42,1.07c-.08,3.07,1.54,5.94,3.35,8.31a33.54,33.54,0,0,0,8.51,7.72c5,3.19,13.53,7.29,19,2.83a1.54,1.54,0,0,1,.89-.36l.11-.14C45.87,701.41,48.12,696.25,49.36,691.47Z"/><path class="cls-3" d="M368.55,690.35a1.34,1.34,0,0,0-.42,1.06c.09,3.1-1.56,5.91-3.35,8.31a33.43,33.43,0,0,1-8.51,7.72c-4.91,3.23-13.56,7.26-19,2.83a1.55,1.55,0,0,0-.89-.36l-.11-.14c-3.35-3.74-5.51-8.87-6.82-13.66-1.21-4.44-1.82-10.58,2.76-13.22a1.61,1.61,0,0,0,1-.34v1.89a1.5,1.5,0,0,0,3,0V682a1.57,1.57,0,0,0-.05-.39,11.91,11.91,0,0,1,3.54-.61,1.39,1.39,0,0,0,1.25-.74,1.87,1.87,0,0,0,.3-.19c.36-.29.7-.6,1-.93C351.94,674.59,362.59,683.22,368.55,690.35Zm-1.91,2.06c1.93.08,1.92-2.91,0-3a27.79,27.79,0,0,0-9.51,1.4c-1.7-2.22-3.56-4.32-5.14-6.63-1.08-1.58-3.67-.09-2.58,1.51,1.47,2.15,3.19,4.12,4.79,6.17q-1.91.77-3.72,1.69l-.77.4a46.13,46.13,0,0,1-5.19-6.79,1.5,1.5,0,0,0-2.58,1.51,47,47,0,0,0,5.14,6.79,36.73,36.73,0,0,0-3.17,2.21c-1.75-2.86-3.37-5.81-5.37-8.52-1.13-1.53-3.72,0-2.58,1.51,2.1,2.86,3.78,6,5.65,9a26.45,26.45,0,0,0-4.15,4.95c-1,1.63,1.54,3.13,2.58,1.51a22.44,22.44,0,0,1,3.23-3.91c.22.31.43.62.66.93,1.13,1.53,3.73,0,2.58-1.51-.34-.46-.66-.92-1-1.39a37,37,0,0,1,3.54-2.45l.57.67c1.24,1.48,3.34-.64,2.11-2.11l0-.05a38.9,38.9,0,0,1,4.3-2,1.57,1.57,0,0,0,2.71-.9A25.25,25.25,0,0,1,366.64,692.41Z"/><path d="M366.64,689.42c1.92.08,1.93,3.07,0,3a25.25,25.25,0,0,0-7.91,1,1.57,1.57,0,0,1-2.71.9,38.9,38.9,0,0,0-4.3,2l0,.05c1.23,1.47-.87,3.59-2.11,2.11l-.57-.67a37,37,0,0,0-3.54,2.45c.32.47.64.93,1,1.39,1.15,1.55-1.45,3-2.58,1.51-.23-.31-.44-.61-.66-.93a22.44,22.44,0,0,0-3.23,3.91c-1,1.62-3.62.12-2.58-1.51a26.45,26.45,0,0,1,4.15-4.95c-1.86-3-3.55-6.13-5.65-9-1.15-1.55,1.45-3,2.58-1.51,2,2.71,3.61,5.66,5.37,8.52a36.73,36.73,0,0,1,3.17-2.21,47,47,0,0,1-5.14-6.79,1.5,1.5,0,0,1,2.58-1.51,46.13,46.13,0,0,0,5.19,6.79l.77-.4q1.81-.92,3.72-1.69c-1.6-2.05-3.32-4-4.79-6.17-1.09-1.6,1.5-3.09,2.58-1.51,1.58,2.31,3.44,4.41,5.14,6.63A27.79,27.79,0,0,1,366.64,689.42Z"/><path class="cls-4" d="M345.7,501c2.35.58,1.9,3.67,1,6.31a1.62,1.62,0,0,0-.15.41v.06c-.42,1.22-.89,2.3-1.16,2.9a1.55,1.55,0,0,0,.2,1.62,270.22,270.22,0,0,1-10.57,35.61,1.39,1.39,0,0,0-1-.07,16.73,16.73,0,0,1-7.66-.06,45.18,45.18,0,0,1-10-3.24,41.59,41.59,0,0,1-8.68-5.1,16.46,16.46,0,0,1-4.37-4.71,115.11,115.11,0,0,0,2.55-16.65,1.63,1.63,0,0,0,.42-2.39l-.24-.31c0-.12,0-.24,0-.35-.36-.32-.71-.65-1-1a41.89,41.89,0,0,1-3.36-5.46c-1.2-2.32-2.73-5.79-1.61-8.41,2.48-5.82,9.42,5.33,11.43,7a1.59,1.59,0,0,0,2.26-.25,1.19,1.19,0,0,0,1.23-1.08,34.52,34.52,0,0,1,3.67-9.64c1.72-3.38,3.94-7.47,7.41-9.33,1-.54,2.46-.63,3.15.45.88,1.38.38,3.61.07,5.08-.78,3.8-2.51,7.28-3.57,11a1.55,1.55,0,0,0,2.88,1.13c.85-3.14,3.09-6.06,5.22-8.43,1.64-1.82,4.88-5,7.62-3.41,1.36.81-1.26,5.1-1.71,5.89a66.26,66.26,0,0,1-3.75,5.63c-.43.53-.81,1-1.16,1.49-1.15,1.52,1.38,3,2.54,1.56a1.67,1.67,0,0,0,.38-.38l.58-.82a31,31,0,0,1,2.59-2.78C342.07,502.16,343.93,500.56,345.7,501Zm-11.83,16.84c.61-1.83-2.27-2.61-2.88-.79l-1.49,4.48c-.61,1.83,2.28,2.61,2.88.79Z"/><path class="cls-3" d="M334.51,648.39c9.54,4.49,13.34,20.37,6,28.29h0a1.32,1.32,0,0,0-.66.67c-.21.19-.42.38-.64.56l-.1.09a15.63,15.63,0,0,0-4.79,1.11,1.41,1.41,0,0,0-.48-.11c.18-6.3.77-12.64-.59-18.85a1.34,1.34,0,0,0-.48-.8,35.6,35.6,0,0,0,.46-11.85l.55-.07A1.23,1.23,0,0,0,334.51,648.39Z"/><path d="M331,517.05c.61-1.82,3.49-1,2.88.79l-1.49,4.48c-.6,1.82-3.49,1-2.88-.79Z"/><path class="cls-5" d="M333.91,551q-1,2.55-2,5.09a1.48,1.48,0,0,0-.8-.28c-10.92-.72-22.32-4.93-30-13,.42-1.37.82-2.76,1.19-4.15,3.19,3.86,8.29,6.58,12.49,8.5a49,49,0,0,0,10.74,3.54A21.23,21.23,0,0,0,333.91,551Z"/><path class="cls-3" d="M330.34,660.94c1.32,6,.65,12.27.48,18.4-13.18.8-28.17-11.19-27.43-24.78a1.32,1.32,0,0,0-1.41-1.44V653a1.39,1.39,0,0,0,1.21-.72l.1-.18a1.4,1.4,0,0,0,.7.37c8.78,1.94,17.89,3.32,26,7.32l0,0a1.47,1.47,0,0,0,.29.3A1.54,1.54,0,0,0,330.34,660.94Z"/><path class="cls-3" d="M327.46,637.37a34,34,0,0,1,2.77,19.26c-8-3.65-16.76-5.09-25.31-7a1.88,1.88,0,0,0-.21-.2c2.87-6.18,3.77-13.1,5.08-19.75a1.55,1.55,0,0,0,.48-.1c3.45-1.27,7.15-1.68,10.52,0C323.9,631.26,326,634.29,327.46,637.37Z"/><path class="cls-6" d="M330.81,558.73a373,373,0,0,1-26.19,50.92,1.39,1.39,0,0,0-.93,1.51q-.86,1.4-1.73,2.79a525.18,525.18,0,0,1-34,47.83,1.88,1.88,0,0,0-.18.27,1.47,1.47,0,0,0-1.54,1.85,73.69,73.69,0,0,1,2.49,15.65c-6.08-19.65-14.35-38.52-26-55.71h0a336.74,336.74,0,0,1,27.35-30.32,1.36,1.36,0,0,0,.38-1.4c.73-.69,1.45-1.39,2.16-2.1a114.25,114.25,0,0,0,27.49-44C308.2,553.83,319.72,557.94,330.81,558.73Z"/><path class="cls-6" d="M321.92,846.39A144.28,144.28,0,0,1,302,857.82a307.37,307.37,0,0,1-28.77,12.52A235.47,235.47,0,0,1,248.3,878a1.6,1.6,0,0,0-.43.05l-.84.26a259.24,259.24,0,0,1-35.72,6c-10.64,1.05-21.35,1.43-32,1.5q-5,0-9.92,0a1.64,1.64,0,0,0-.63,0c-7.35-.08-14.7-.32-22-.82q-2.26-.15-4.53-.35a81.67,81.67,0,0,0-9.42-1.17,1.59,1.59,0,0,0-.51.05c-14.76-2-29.28-5.94-42.33-13.26a315.49,315.49,0,0,1,44.66-105.65q4.89-7.45,10.21-14.62a1.37,1.37,0,0,0,.14-.2,1.17,1.17,0,0,0-.16-1.51c-7.11-11-9.46-24.93-10.51-37.8s-.75-26.52,2.11-39.28c.42-1.88-2.46-2.68-2.88-.8a131.59,131.59,0,0,0-2.52,35.24l-6,3a121.07,121.07,0,0,1-7.17-21.29,1.42,1.42,0,0,0-.25-.58,19,19,0,0,0,1-2.25,1.47,1.47,0,0,0,.84-1.25,12.64,12.64,0,0,0,0-2.33,1.63,1.63,0,0,0,.34-.4c5.78-9.65,14.48-17.19,21.37-26A156.23,156.23,0,0,1,154.67,639a1.47,1.47,0,0,0,.38-.08c7.12-2.36,14.44-4.37,22-3.93h.2l.16,1.58c-2.47,6.12-4.24,15.78,4.23,17.74,7.22,1.68,15.24-2.84,20.72-7.27a15.17,15.17,0,0,0,16.81,3.31,10.21,10.21,0,0,0,6-7.55c.46-3.59-1.44-7-3-10.06a1.25,1.25,0,0,0-1.4-.73,33.05,33.05,0,0,1,4.23-2.41c15.7,29.11,32.6,58.77,38.81,91.48-1.61,7.22-3.35,14.42-4.84,21.66a1.34,1.34,0,0,0,.14,1.21Q290,795.46,321.92,846.39Zm-56-56.88c2.3-7.16.76-14.84-2.12-21.58a32.11,32.11,0,0,0-3.44-11.56,1.26,1.26,0,0,0-1.59-.69c-7.34-1.11-14.81-.47-22.12.55A176,176,0,0,0,214.18,761a1.38,1.38,0,0,0-.94.8,1.48,1.48,0,0,0-2.15,1.31c0,5.07.09,10.24,2,15a1.48,1.48,0,0,0,.14.27,1.69,1.69,0,0,0,0,1.4,1.54,1.54,0,0,0-.17,1c1.52,10.14,7,19.63,16.72,23.79A28.46,28.46,0,0,0,254.93,803,24.13,24.13,0,0,0,265.92,789.51Zm-74.31-11.4c2-4.76,2-9.94,2-15a1.48,1.48,0,0,0-2.15-1.31,1.37,1.37,0,0,0-.94-.8,182.73,182.73,0,0,0-21.93-4.69c-7.47-1.1-15.16-1.76-22.66-.63a1.26,1.26,0,0,0-1.59.69A32.16,32.16,0,0,0,141,767.94c-3.95,9.23-4.9,20.08,1.42,28.52,5.21,6.95,13.92,10.55,22.49,10.31a27.1,27.1,0,0,0,16.86-6.5c5.72-4.9,8.79-12.19,9.88-19.5a1.53,1.53,0,0,0-.17-1,1.69,1.69,0,0,0,0-1.4A1.44,1.44,0,0,0,191.61,778.11Z"/><path class="cls-3" d="M305.39,614.11c1.95,3.6,3.07,7.61,2.3,11.6-2.77-.81-5.57-1.5-8.41-2Q302.39,618.93,305.39,614.11Z"/><path class="cls-3" d="M306.84,628.57a1.14,1.14,0,0,0,0,.56c-1.32,6.78-2.19,13.92-5.39,20.12-5.66-.09-10.72-3.69-14.37-7.86q5.36-7.45,10.45-15.1a1.55,1.55,0,0,0,.47.17C301,627,303.93,627.73,306.84,628.57Z"/><path class="cls-3" d="M302.67,515.9q-.2,3.11-.56,6.17a1.6,1.6,0,0,0-.55-.17c-15.15-1.76-29.27-8.59-41.52-17.43-2.1-1.51-4.14-3.1-6.14-4.75a13.93,13.93,0,0,0,2.89-2.13c1.39-1.34-.72-3.45-2.11-2.11a11,11,0,0,1-3.25,2.14,139,139,0,0,1-24.45-28,14.82,14.82,0,0,1,6.18-2.23A19.5,19.5,0,0,1,246,470.83c1.62,1.06,3.11-1.53,1.51-2.58a22.18,22.18,0,0,0-15.22-3.76,17.7,17.7,0,0,0-7,2.62c-9.67-15.23-16.76-32.82-17.59-51a1.43,1.43,0,0,0-.93-1.31,1.21,1.21,0,0,0-1.74.34,1.24,1.24,0,0,0-.3.64c-7,16.29-19.07,29.74-32.62,41l-.78.63a14.94,14.94,0,0,0-6.88-1c-5.93.51-11.27,4-15.4,8.08-1.37,1.35.74,3.47,2.11,2.11,3.46-3.42,7.64-6.18,12.48-7.09a11.68,11.68,0,0,1,4.91.11,201.9,201.9,0,0,1-18.31,12.64c-7.8,4.81-15.49,9.79-23.36,14.47-14.46,8.6-29.84,15.51-46.72,17.1a111,111,0,0,1,3.27-22.26C117,467.72,150,450.82,176.69,425.83A173.09,173.09,0,0,0,189,413.08a65.63,65.63,0,0,0,5-6.36c1.8-2.67,3.41-5.47,5.21-8.14a1.37,1.37,0,0,0,.26-.8,110.67,110.67,0,0,1,13.88,1.88A158.68,158.68,0,0,0,225,425.38,250.79,250.79,0,0,0,241,450.65c2.82,3.89,5.82,7.64,9,11.27.57.66.82,1.5,1.41,2.18s1.44,1.64,2.17,2.45c1.63,1.81,3.29,3.59,5,5.36,6.8,7.14,14,13.94,21.24,20.6,6.05,5.54,12.21,11,18.4,16.34a1.52,1.52,0,0,0,.41.26A36.76,36.76,0,0,0,302.67,515.9Z"/><path class="cls-3" d="M302.06,495.34c-1.46-.05-2.91.71-4.3,2.76a7.63,7.63,0,0,0-.94,5.61C283.39,492,270.09,480,257.93,466.9q-2.25-2.42-4.43-4.91c-.57-.65-.82-1.5-1.41-2.18-.91-1-1.8-2.1-2.68-3.16-3.13-3.78-6-7.73-8.83-11.77A250.24,250.24,0,0,1,225,419.14a146.36,146.36,0,0,1-8.17-18.74,110.62,110.62,0,0,1,26,9.65c15,29.25,35.74,55.39,58.31,79.18Q301.69,492.26,302.06,495.34Z"/><path class="cls-4" d="M301.57,524.89h.18q-.55,3.84-1.36,7.6a1.3,1.3,0,0,0-.59,1.6l.14.39A111.77,111.77,0,0,1,218.36,617c-.09.78-.19,1.56-.29,2.34a1.47,1.47,0,0,0-.17.7c0,4.4-.89,8.77-.52,13.17-6.39,13.2-27.25,12.77-36.77,3.22a1.09,1.09,0,0,0-.3-.89L179.05,623a1.52,1.52,0,0,0-.83-1.24q-.08-1.15-.15-2.31a111.56,111.56,0,0,1-98-110.59c0-.68,0-1.36,0-2,17.86-1.64,34-8.95,49.25-18.07,7.85-4.69,15.55-9.64,23.32-14.46a201.67,201.67,0,0,0,19.12-13.42,15.92,15.92,0,0,1,4.95,4.42c1.14,1.52,3.74,0,2.58-1.51a20.29,20.29,0,0,0-5.08-4.89l0,0c12.45-10.23,23.68-22.54,31-37,1.51,13.09,6,25.72,12.13,37.37q2.59,4.94,5.59,9.66a21.13,21.13,0,0,0-3.36,3.84c-1.09,1.59,1.5,3.09,2.58,1.51a17.37,17.37,0,0,1,2.42-2.83,142.68,142.68,0,0,0,15.23,19.11l-.28-.11-.17-.07-.19-.06a12.58,12.58,0,0,0-14.21,4,18.38,18.38,0,0,0-3.41,14.87,13.66,13.66,0,0,0,12,10.73c7.14.84,13.43-3.83,15.48-10.58a14.6,14.6,0,0,0,.15-7.86c.57-.12,1.13-.27,1.68-.44C265.25,513.27,282.63,522.69,301.57,524.89Zm-84.37-1.74c1.09-1.59-1.5-3.08-2.58-1.51a80.13,80.13,0,0,1-7.63,10c-2.5,2.64-6,5.66-9.87,4.56-3.7-1.06-7.09-3.71-9.92-6.2-2.47-2.17-5.51-5-6.36-8.33a1.5,1.5,0,0,0-2.88.8c1,3.85,4.28,7.08,7.13,9.64,3.24,2.91,7,5.66,11.24,7s8.39-1.22,11.48-4C211.53,531.63,214.36,527.29,217.2,523.15Zm-15.79-4.81a39.64,39.64,0,0,0,0-10.75c-.26-1.9-3.14-1.09-2.88.79a34.13,34.13,0,0,1,0,9.17C198.27,519.43,201.15,520.25,201.41,518.34Zm-28.73-12.91a18.22,18.22,0,0,0-2.6-15,12.67,12.67,0,0,0-15-4.7l-.17.07a15.58,15.58,0,0,0-7.1,5.6,8.87,8.87,0,0,1-5.06-2.93c-1.2-1.51-3.3.62-2.11,2.11a11,11,0,0,0,5.66,3.5,16.4,16.4,0,0,0-1.17,9.22,14.57,14.57,0,0,0,14.62,12A13.8,13.8,0,0,0,172.68,505.43Z"/><path class="cls-7" d="M294.63,716.33c5,18,4.46,39.91-9.15,54.17a25.3,25.3,0,0,1-4.57,3.77q-7.65-12.59-15.25-25.22l.74-.44a1.53,1.53,0,0,0,2.8-.77,135,135,0,0,0-2.38-26.54l.15-.69a1.45,1.45,0,0,0-.59-1.55c-5.62-27.82-18.85-53.92-32.28-78.88-3-5.53-6-11.05-8.94-16.6-.91-1.7-3.49-.19-2.58,1.51l1,1.88a34.48,34.48,0,0,0-3.27,1.77c.15-2.89.53-5.78.56-8.69a1.32,1.32,0,0,0,0-.21,113.42,113.42,0,0,0,35.1-16c-5.22,5.63-10.26,11.42-15,17.46q-1.55-2.2-3.18-4.35c-1.15-1.52-3.74,0-2.58,1.51,22.82,30.33,34,66.76,40.62,103.69q.55,3.09,1.07,6.19c.32,1.89,3.2,1.09,2.88-.8-2.13-12.73-4.73-25.46-8.11-37.94a1.53,1.53,0,0,0,.12-.53,84.41,84.41,0,0,0-2.3-24.7,1.32,1.32,0,0,0,.61-.46l2.06-2.61C279,679.88,289.3,697.14,294.63,716.33Zm-14.48,16.25a1.49,1.49,0,0,0-3,0c-.06,5.32-2,11.24-6,14.88-1.43,1.3.69,3.4,2.11,2.11C277.81,745.41,280.07,738.64,280.14,732.58Z"/><path class="cls-8" d="M282.82,964.41a42.21,42.21,0,0,1,9.83,3c-8.08,1.07-16.38.19-24.33-1.45l-5.07-11.11a40.44,40.44,0,0,0,17.18.63c0,2.27,0,4.54,0,6.82a1.38,1.38,0,0,0,1.47,1.44A1.23,1.23,0,0,0,282.82,964.41Z"/><path class="cls-3" d="M247.59,412.68a111.78,111.78,0,0,1,52.4,71C279.93,462.1,261.55,438.64,247.59,412.68Z"/><path class="cls-5" d="M280.25,948.21c.06,1.41.1,2.83.13,4.24a37.33,37.33,0,0,1-17.27-.7,1.37,1.37,0,0,0-1.19.18q-1.32-2.9-2.63-5.8C266.06,948.16,273.23,948.2,280.25,948.21Z"/><path d="M277.15,732.58a1.49,1.49,0,0,1,3,0c-.07,6.07-2.33,12.84-6.91,17-1.42,1.29-3.54-.81-2.11-2.11C275.13,743.82,277.09,737.9,277.15,732.58Z"/><path class="cls-4" d="M276.44,874.87c-1.28,23.48,2.51,46.89,3.68,70.35-7.23,0-14.58,0-21.49-2.44a1.37,1.37,0,0,0-.85,0c-3-6.79-6-13.6-8.89-20.46-3.05-7.33-5.91-14.73-8.65-22.18-1.15-3.13-2.45-6.21-3.71-9.3C250.4,887.26,263.76,881.5,276.44,874.87Z"/><path class="cls-7" d="M266.4,748.6l-.74.44L262,742.91c1-4.67,2-9.32,3.1-14,.1.71.19,1.42.27,2.13a129.76,129.76,0,0,1,.86,16.76A1.48,1.48,0,0,0,266.4,748.6Z"/><path d="M263.8,767.93c2.89,6.74,4.42,14.42,2.12,21.58a24.13,24.13,0,0,1-11,13.52,28.46,28.46,0,0,1-25.08,1.53c-9.72-4.16-15.2-13.65-16.72-23.79a1.54,1.54,0,0,1,.17-1,1.69,1.69,0,0,1,0-1.4,1.48,1.48,0,0,1-.14-.27c-2-4.76-2-9.94-2-15a1.48,1.48,0,0,1,2.15-1.31,1.38,1.38,0,0,1,.94-.8,176,176,0,0,1,22.46-4.76c7.31-1,14.78-1.66,22.12-.55a1.26,1.26,0,0,1,1.59.69A32.11,32.11,0,0,1,263.8,767.93Zm-5.22,28.43c6.25-6.77,6.45-16,3.64-24.32a1.48,1.48,0,0,1-.42.13,23.66,23.66,0,0,0-5.22,1.64,28.59,28.59,0,0,1-5.57,1.53c-3.93.7-7.89,1.19-11.81,2-7.63,1.49-15.3,3-23.09,3.21.95,5.83,3.1,11.59,7.23,15.92A23.62,23.62,0,0,0,236,803.34C244,804.9,253,802.45,258.57,796.36Zm2.31-27a27.09,27.09,0,0,0-2.77-10.74H258c-7.29-1.11-14.93-.34-22.16.78A184,184,0,0,0,215,763.88a1.41,1.41,0,0,1-.9,0c0,4.58.18,9.15,1.94,13.45a1.63,1.63,0,0,1,.07.21c7.75-.21,15.35-1.76,22.95-3.23,3.91-.76,7.88-1.18,11.79-1.94C254.28,771.67,257.41,769.86,260.88,769.32Z"/><path class="cls-6" d="M262.21,772c2.81,8.28,2.61,17.54-3.64,24.32-5.62,6.09-14.59,8.53-22.62,7a23.62,23.62,0,0,1-12.62-6.91c-4.13-4.33-6.28-10.09-7.23-15.92,7.79-.22,15.46-1.73,23.09-3.21,3.92-.76,7.88-1.25,11.81-2a28.59,28.59,0,0,0,5.57-1.53,23.66,23.66,0,0,1,5.22-1.64A1.48,1.48,0,0,0,262.21,772Z"/><path class="cls-9" d="M258.11,758.58a27.09,27.09,0,0,1,2.77,10.74c-3.47.55-6.6,2.36-10.06,3-3.91.77-7.88,1.19-11.79,1.94-7.6,1.47-15.2,3-22.95,3.23a1.63,1.63,0,0,0-.07-.21c-1.76-4.3-1.93-8.87-1.94-13.45a1.41,1.41,0,0,0,.9,0,184,184,0,0,1,20.87-4.53c7.24-1.12,14.87-1.89,22.16-.78Z"/><path d="M238.58,493.26c7.62,2.89,10.18,12.42,5.75,19-3.86,5.75-12.4,6.22-17.2,1.44-7.12-7.07-1.13-23.21,9.65-21A14.7,14.7,0,0,1,238.58,493.26Z"/><path class="cls-5" d="M219.9,634.84c1.14,2.22,2.37,4.55,2.36,7.09,0,2.77-2.62,5.05-5,6a12.12,12.12,0,0,1-12-2.26C211.51,644.28,217,640.76,219.9,634.84Z"/><path d="M214.62,521.64c1.09-1.58,3.67-.09,2.58,1.51-2.84,4.14-5.66,8.48-9.4,11.88-3.1,2.83-7.14,5.4-11.48,4s-8-4.06-11.24-7c-2.86-2.57-6.14-5.8-7.13-9.64a1.5,1.5,0,0,1,2.88-.8c.86,3.31,3.89,6.15,6.36,8.33,2.84,2.5,6.23,5.15,9.92,6.2,3.87,1.1,7.38-1.92,9.87-4.56A80.13,80.13,0,0,0,214.62,521.64Z"/><path d="M201.41,507.59a39.64,39.64,0,0,1,0,10.75c-.26,1.9-3.14,1.09-2.88-.79a34.13,34.13,0,0,0,0-9.17C198.27,506.5,201.15,505.69,201.41,507.59Z"/><path d="M193.66,763.1c0,5.07-.09,10.24-2,15a1.44,1.44,0,0,1-.14.27,1.69,1.69,0,0,1,0,1.4,1.53,1.53,0,0,1,.17,1c-1.1,7.31-4.16,14.6-9.88,19.5a27.1,27.1,0,0,1-16.86,6.5c-8.57.24-17.28-3.37-22.49-10.31C136.05,788,137,777.17,141,767.94a32.16,32.16,0,0,1,3.44-11.56,1.26,1.26,0,0,1,1.59-.69c7.5-1.13,15.19-.47,22.66.63A182.73,182.73,0,0,1,190.57,761a1.37,1.37,0,0,1,.94.8A1.48,1.48,0,0,1,193.66,763.1Zm-4.93,14.21c1.76-4.3,1.93-8.87,1.94-13.45a1.42,1.42,0,0,1-.9,0,177.53,177.53,0,0,0-21.4-4.61c-7.08-1-14.5-1.79-21.63-.7h-.11a27.09,27.09,0,0,0-2.77,10.74c3.47.55,6.58,2.39,10.06,3,3.92.73,7.88,1.18,11.79,1.94,7.6,1.47,15.2,3,22.95,3.23A1.5,1.5,0,0,1,188.73,777.31ZM172,802.47c9.68-3.34,15-12.25,16.6-22-7.79-.22-15.46-1.73-23.09-3.21-4.12-.8-8.3-1.26-12.42-2.06-3.5-.69-6.66-2.53-10.17-3.05a1.52,1.52,0,0,1-.43-.14,27,27,0,0,0-1.3,14.85,20.77,20.77,0,0,0,7.32,11.67A25.24,25.24,0,0,0,172,802.47Z"/><path class="cls-3" d="M196.34,397.6c-2.53,3.83-4.74,7.89-7.69,11.42-2.68,3.2-5.58,6.26-8.49,9.25a196.89,196.89,0,0,1-21,18.49c-14.68,11.27-30.76,20.63-47.32,28.83-9,4.45-18.14,8.53-27.39,12.39a110.9,110.9,0,0,1,8-20.14,1.62,1.62,0,0,0,.39-.16,337.92,337.92,0,0,0,77-57.66,1.58,1.58,0,0,0,.32-.47,111.45,111.45,0,0,1,21.32-2.06C193.13,397.49,194.74,397.53,196.34,397.6Z"/><path class="cls-9" d="M190.67,763.86c0,4.58-.18,9.15-1.94,13.45a1.5,1.5,0,0,0-.07.21c-7.75-.21-15.35-1.75-22.95-3.23-3.91-.76-7.87-1.21-11.79-1.94-3.47-.65-6.58-2.49-10.06-3a27.09,27.09,0,0,1,2.77-10.74h.11c7.12-1.08,14.55-.34,21.63.7a177.53,177.53,0,0,1,21.4,4.61A1.42,1.42,0,0,0,190.67,763.86Z"/><path class="cls-5" d="M179.49,639.49c4.87,4.34,11.92,6.75,18.87,6.86-4.44,3.18-10.16,6-15.43,5.16C176.88,650.59,177.9,644.19,179.49,639.49Z"/><path class="cls-6" d="M188.64,780.51c-1.6,9.71-6.92,18.63-16.6,22a25.24,25.24,0,0,1-23.5-3.91,20.77,20.77,0,0,1-7.32-11.67,27,27,0,0,1,1.3-14.85,1.52,1.52,0,0,0,.43.14c3.51.52,6.67,2.37,10.17,3.05,4.12.81,8.3,1.26,12.42,2.06C173.18,778.78,180.85,780.29,188.64,780.51Z"/><path class="cls-7" d="M176.06,623l.9,9a52.76,52.76,0,0,0-17.25,2.35c1.82-1.58,3.71-3.1,5.65-4.54,1.53-1.13,0-3.73-1.51-2.58-9.59,7.09-17.67,15.85-25,25.21-5.28,6.74-11.58,12.77-16.89,19.52l-.43-.34c1.25-1.59,1.2-3.61.58-5.56,4.76-5.36,9.1-11.06,13.68-16.57,1.22-1.47-.88-3.6-2.11-2.11-4.34,5.22-8.47,10.63-12.94,15.73a17.69,17.69,0,0,0-1.45-2.05,13.19,13.19,0,0,0-5.39-4,83.57,83.57,0,0,1,11.78-16.85h0a1.46,1.46,0,0,0,.6-.68q2.68-3,5.57-5.7c7.2-6.84,15.95-13.19,25.83-15.28a114.36,114.36,0,0,0,18.39,4A1.58,1.58,0,0,0,176.06,623Z"/><path d="M170.08,490.47a18.22,18.22,0,0,1,2.6,15,13.8,13.8,0,0,1-12.93,10,14.57,14.57,0,0,1-14.62-12,16.4,16.4,0,0,1,1.17-9.22,11,11,0,0,1-5.66-3.5c-1.19-1.49.91-3.62,2.11-2.11a8.87,8.87,0,0,0,5.06,2.93,15.58,15.58,0,0,1,7.1-5.6l.17-.07A12.67,12.67,0,0,1,170.08,490.47ZM168.22,508c2.78-4.12,2.66-9.92.37-14.25-2.62-4.95-7.38-7-12.72-5.14a11.08,11.08,0,0,0-2,1c-6.57,4.19-8.2,14.07-2.32,19.63C156.08,513.58,164.49,513.56,168.22,508Z"/><path d="M168.6,493.79c2.29,4.32,2.41,10.13-.37,14.25-3.73,5.52-12.15,5.55-16.71,1.24-5.87-5.55-4.24-15.44,2.32-19.63a11.08,11.08,0,0,1,2-1C161.22,486.8,166,488.84,168.6,493.79Z"/><path class="cls-4" d="M164.42,896.41c-1.16,3.5-2.35,7-3.66,10.46-2.59,6.83-5.35,13.6-8.21,20.33s-5.73,13.18-8.69,19.73a1.6,1.6,0,0,0-.66-.21,71,71,0,0,1-20.35-4.36c-.1-18.69,0-37.38-1.26-56a83.75,83.75,0,0,0,20,7.17A101.34,101.34,0,0,0,164.42,896.41Z"/><path class="cls-5" d="M142.63,949.65l-2.49,5.47c-5.62-1.44-11.47-1.93-17-3.87l-.26-.07c0-1.87,0-3.75,0-5.63A74.4,74.4,0,0,0,142.63,949.65Z"/><path class="cls-7" d="M140.1,749.89a1.5,1.5,0,0,0,.53.73q-4.2,5.79-8.15,11.76c-9.48-14-19.19-28.23-25.88-43.71a1.19,1.19,0,0,0-.42-1A105.54,105.54,0,0,1,99.72,697a31,31,0,0,0,11.38-3.39,15.57,15.57,0,0,0,4.22-3.49C120.5,711.13,132.92,729.55,140.1,749.89Z"/><path class="cls-8" d="M138.88,957.88,135.19,966c-7.95,1.64-16.25,2.53-24.33,1.45a42.29,42.29,0,0,1,9.83-3,1.24,1.24,0,0,0,.95-.66,1.37,1.37,0,0,0,1.47-1.44q-.1-4-.15-8C128.13,956.05,133.59,956.58,138.88,957.88Z"/><path class="cls-3" d="M164.92,400.7A335,335,0,0,1,95.18,453,111.82,111.82,0,0,1,164.92,400.7Z"/><path class="cls-3" d="M122.63,600.65a1.58,1.58,0,0,0-.3.56c-2.91,9.7-13.38,14.51-22.7,16.19-2.52-12.28-4.42-25.88,2.14-37a115.87,115.87,0,0,0,20.86,20.28Z"/><path class="cls-4" d="M119.37,667a3.52,3.52,0,0,1-.21,2.79c-1.38,2.34-6.12.78-7.93.13a1.28,1.28,0,0,0-1.13.08,20.66,20.66,0,0,0-15.1-.58,1.75,1.75,0,0,0-.42.24,1.44,1.44,0,0,0-.32-1,7.21,7.21,0,0,1,2.89-4.49,1.51,1.51,0,0,0,.64-1.46c5.13-3.58,12.63-5.59,17.85-1.17a14.15,14.15,0,0,1,3.21,4.09A1.62,1.62,0,0,0,119.37,667Z"/><path class="cls-4" d="M116.26,681.31a17.37,17.37,0,0,1-1.15,3.5c-4.42-7.08-16.17-4.57-23.11-3l-.25.08a38.71,38.71,0,0,1,2.09-6.71,1.16,1.16,0,0,0-.45-1.53,1.43,1.43,0,0,0,.95-1.75,1.19,1.19,0,0,0,1.44.34C103.06,669.39,115.26,672.67,116.26,681.31Z"/><path class="cls-4" d="M113.26,687.83a13.6,13.6,0,0,1-3.67,3.15c-3.19,1.89-7,2.64-10.66,3.08a1.58,1.58,0,0,0-2.24.41,1.55,1.55,0,0,0,0,2.66q.43,2.27,1,4.49c-6.07-3.75-7.28-10.68-6.35-17.38a1.43,1.43,0,0,0,1.46.46C98.51,683.4,110.62,680.24,113.26,687.83Z"/><path class="cls-6" d="M101.53,714.11q.82,2.2,1.73,4.35c-3.73,4.72-8.73,8.8-14.6,10.36S77.39,728,74,723.06c-4.69-6.89-5.12-15.46-2.49-23.18A48.43,48.43,0,0,1,80,685.38a23.8,23.8,0,0,0,2.41,13C85.9,705.82,93,713.1,101.53,714.11Z"/><path class="cls-5" d="M98.36,704.27q.9,3.38,2,6.67c-6.71-1.38-12.09-7.63-15.08-13.4-3.19-6.16-4.29-14.73,1.86-19.47a1.56,1.56,0,0,0,.62-1.38q1.85-1.88,3.76-3.71a1.31,1.31,0,0,0,.39.52,1.55,1.55,0,0,0-1,.91c-4.1,9.89-5,24,5.67,30.07A1.4,1.4,0,0,0,98.36,704.27Z"/><path class="cls-3" d="M97.45,621.48a1.26,1.26,0,0,0,.84,1c-.52,5.38-3.24,10.51-6.74,14.55s-8.64,7.54-14.16,7.63c-3.2-6.2-4.07-13.34-5.39-20.12a1.15,1.15,0,0,0,0-.56c8.07-2.34,16.58-3.86,25-2.45A1.6,1.6,0,0,0,97.45,621.48Z"/><path class="cls-3" d="M94.46,594.92c-.55,7.8.78,15.9,2.35,23.53-8.64-1.25-17.31.19-25.65,2.61-1.21-6.28,2.16-12.8,6.46-17.31a37.48,37.48,0,0,1,7.29-5.87c2.42-1.51,5.62-3.23,8.58-2.8A1.57,1.57,0,0,0,94.46,594.92Z"/><path class="cls-4" d="M76.79,508.92a114.2,114.2,0,0,0,12.16,51.49c-7.12,4.21-15.33,3.27-22.34-.77-7.32-4.23-12.6-11.55-15.17-19.52s-2.11-17.33,2.73-24.49S68.78,505.31,76.79,508.92Zm2.42,43.68A1.5,1.5,0,0,0,77.71,550c-2,1.18-4.59,2.32-6.69.87-1.47-1-1.95-3.35-2-5.07a9.6,9.6,0,0,1,1.61-6c1.12-1.58,2.88-1.61,4.61-.7a1.56,1.56,0,0,0,.8.18l.16.28a1.49,1.49,0,0,0,2.58-1.51C75.47,532.56,73,525.58,67,522.41c-6.57-3.44-15.35,2.34-12.86,9.88.6,1.82,3.49,1,2.88-.79A5,5,0,0,1,60,525c2.85-1.19,5.5-.38,7.74,1.57,2.82,2.45,4.58,5.82,6.31,9.14a5.93,5.93,0,0,0-5.31,1.8c-2,2.1-2.74,5.29-2.72,8.12s1,6,3.35,7.76C72.37,555.6,76.3,554.31,79.21,552.6Z"/><path d="M77.71,550a1.5,1.5,0,0,1,1.51,2.58c-2.91,1.71-6.84,3-9.85.76C67,551.58,66,548.47,66,545.6s.71-6,2.72-8.12a5.93,5.93,0,0,1,5.31-1.8c-1.73-3.33-3.49-6.7-6.31-9.14-2.24-1.95-4.89-2.76-7.74-1.57a5,5,0,0,0-3,6.53c.61,1.83-2.28,2.61-2.88.79C51.63,524.75,60.4,519,67,522.41c6.06,3.17,8.5,10.15,11.78,15.7a1.49,1.49,0,0,1-2.58,1.51l-.16-.28a1.56,1.56,0,0,1-.8-.18c-1.72-.91-3.49-.87-4.61.7a9.6,9.6,0,0,0-1.61,6c.07,1.72.54,4.06,2,5.07C73.12,552.34,75.71,551.2,77.71,550Z"/><path class="cls-3" d="M76.88,648.4v.08a1.32,1.32,0,0,0-1.41,1.44c.74,13.59-14.25,25.58-27.43,24.78-.17-6.13-.84-12.37.48-18.4a1.53,1.53,0,0,0,0-.78,1.72,1.72,0,0,0,.3-.3l0,0c8.14-4,17.26-5.38,26-7.32a1.41,1.41,0,0,0,.7-.37l.1.18A1.38,1.38,0,0,0,76.88,648.4Z"/><path class="cls-3" d="M74.16,644.81a1.56,1.56,0,0,0-.22.2c-8.55,1.88-17.29,3.33-25.31,7a34.55,34.55,0,0,1,2.77-19.26,16.45,16.45,0,0,1,6.41-7.58c3.36-1.93,7.28-1.47,10.78-.19a1.57,1.57,0,0,0,.48.1C70.39,631.71,71.29,638.63,74.16,644.81Z"/><path class="cls-3" d="M46.6,678.25c4.61,2.67,3.92,8.76,2.76,13.23-1.24,4.78-3.5,9.94-6.82,13.65l-.11.14a1.54,1.54,0,0,0-.89.36c-5.43,4.46-14,.36-19-2.83a33.54,33.54,0,0,1-8.51-7.72c-1.81-2.37-3.43-5.24-3.35-8.31a1.34,1.34,0,0,0-.42-1.07c6-7.13,16.6-15.76,26.22-11.25.33.32.67.63,1,.92a1.57,1.57,0,0,0,.3.19,1.38,1.38,0,0,0,1.25.74,11.87,11.87,0,0,1,3.54.61,1.53,1.53,0,0,0-.05.38v2.49a1.5,1.5,0,0,0,3,0v-1.89A1.6,1.6,0,0,0,46.6,678.25ZM42.9,686c1.15-1.56-1.45-3-2.58-1.51-2,2.71-3.62,5.67-5.37,8.54-1-.79-2.08-1.53-3.18-2.21A46.74,46.74,0,0,0,36.92,684a1.5,1.5,0,0,0-2.58-1.51,46.22,46.22,0,0,1-5.19,6.79l-.32-.18a43.21,43.21,0,0,0-4.14-1.94c1.6-2.05,3.31-4,4.77-6.15,1.09-1.6-1.5-3.09-2.58-1.51-1.57,2.31-3.43,4.4-5.12,6.61a28.13,28.13,0,0,0-9.53-1.37c-1.92.08-1.93,3.07,0,3a24.92,24.92,0,0,1,7.91,1,1.58,1.58,0,0,0,2.69.9,42.42,42.42,0,0,1,4.05,1.79l.27.14,0,.05c-1.23,1.47.87,3.59,2.12,2.11l.58-.69a35.06,35.06,0,0,1,3.54,2.44q-.48.72-1,1.41c-1.15,1.56,1.45,3,2.58,1.51.23-.31.45-.62.67-.94a22.7,22.7,0,0,1,3.23,3.93c1,1.62,3.62.12,2.58-1.51A26.1,26.1,0,0,0,37.24,695C39.11,692,40.79,688.88,42.9,686Z"/><path class="cls-3" d="M46.12,654.69a1.39,1.39,0,0,0-.48.81c-1.36,6.2-.77,12.55-.59,18.85a1.4,1.4,0,0,0-.48.12,15.57,15.57,0,0,0-4.79-1.11l-.1-.09c-.22-.18-.43-.37-.64-.57a1.33,1.33,0,0,0-.66-.67h0c-7.36-7.92-3.56-23.8,6-28.29a1.24,1.24,0,0,0,.76-1l.55.07A35.56,35.56,0,0,0,46.12,654.69Z"/><path d="M40.32,684.52c1.13-1.53,3.73,0,2.58,1.51-2.1,2.86-3.79,6-5.65,9A26.1,26.1,0,0,1,41.4,700c1,1.63-1.54,3.13-2.58,1.51a22.7,22.7,0,0,0-3.23-3.93c-.22.32-.44.63-.67.94-1.13,1.53-3.73,0-2.58-1.51q.51-.69,1-1.41a35.06,35.06,0,0,0-3.54-2.44l-.58.69c-1.24,1.48-3.34-.65-2.12-2.11l0-.05-.27-.14a42.42,42.42,0,0,0-4.05-1.79,1.58,1.58,0,0,1-2.69-.9,24.92,24.92,0,0,0-7.91-1c-1.93.08-1.92-2.91,0-3a28.13,28.13,0,0,1,9.53,1.37c1.69-2.21,3.55-4.3,5.12-6.61,1.08-1.59,3.67-.09,2.58,1.51-1.46,2.15-3.17,4.1-4.77,6.15a43.21,43.21,0,0,1,4.14,1.94l.32.18a46.22,46.22,0,0,0,5.19-6.79A1.5,1.5,0,0,1,36.92,684a46.74,46.74,0,0,1-5.16,6.81c1.09.69,2.16,1.42,3.18,2.21C36.7,690.18,38.32,687.23,40.32,684.52Z"/></g><path class="cls-10" d="M129,538.94c.22-.75.46-1.47.7-2.13q.21-.57.44-1.14c.09-.61.21-1.21.35-1.81a10.29,10.29,0,0,0-1.54,4.78C129,538.74,129,538.84,129,538.94Z"/><path class="cls-10" d="M138.77,537.93a1.46,1.46,0,0,1-.52-2l.38-.58c-.06-.21-.12-.41-.2-.62-.42,1.12-1,3-.18,3.75A3.42,3.42,0,0,0,138.77,537.93Z"/><path class="cls-10" d="M157.42,547.44a28.62,28.62,0,0,1-1.9,2.15,26.77,26.77,0,0,1-1.73,2.22A24.35,24.35,0,0,0,157.42,547.44Z"/><path class="cls-11" d="M162.1,529.22c-.17-.42-.35-.83-.54-1.23-2.19-9.41-11.51-16.78-21.27-16.74A21.25,21.25,0,0,0,128.57,515c-8.58,3-15.53,10.43-16.09,19.84a22.88,22.88,0,0,0,2.21,10.82,20.85,20.85,0,0,0,2.57,6A22,22,0,0,0,138,562.22a19.69,19.69,0,0,0,20.16-8.92,25.34,25.34,0,0,0,3.85-8.56A20.76,20.76,0,0,0,162.1,529.22Zm-23.66,5.5c.08.21.14.41.2.62l-.38.58a1.46,1.46,0,0,0,.52,2,3.42,3.42,0,0,1-.51.54C137.39,537.71,138,535.84,138.44,534.72Zm-8.26,1q-.23.57-.44,1.14c-.24.66-.48,1.38-.7,2.13,0-.1,0-.2-.06-.3a10.29,10.29,0,0,1,1.54-4.78C130.39,534.46,130.27,535.07,130.18,535.67Zm25.34,13.92a28.62,28.62,0,0,0,1.9-2.15,24.35,24.35,0,0,1-3.64,4.37A26.77,26.77,0,0,0,155.52,549.59Z"/><path class="cls-10" d="M256.31,542l.38.57a1.47,1.47,0,0,1-.55,2,3,3,0,0,0,.5.53c.85-1,.35-2.59-.12-3.77C256.44,541.56,256.37,541.77,256.31,542Z"/><path class="cls-10" d="M264.37,540.44c.13.56.23,1.12.32,1.67.43,1,.83,2.1,1.18,3.22,0-.23.08-.46.12-.69a10,10,0,0,0-.91-3.05A9.59,9.59,0,0,0,264.37,540.44Z"/><path class="cls-10" d="M241.54,558.84a26.39,26.39,0,0,1-2.08-2.54c-.55-.56-1.09-1.15-1.59-1.76A25,25,0,0,0,241.54,558.84Z"/><path class="cls-11" d="M281.29,535.62c-2.45-6.79-8.24-11.6-14.91-13.94-.47-.31-1-.61-1.44-.89a20.88,20.88,0,0,0-15-2.37A23.39,23.39,0,0,0,235.6,529a18.36,18.36,0,0,0-2.3,5.9,21.66,21.66,0,0,0-2,7.74,20.61,20.61,0,0,0,1.94,10,25,25,0,0,0,7.36,11.72,19.5,19.5,0,0,0,15.93,4.53,22.62,22.62,0,0,0,12.37-2.38,23.29,23.29,0,0,0,11.32-14A22.76,22.76,0,0,0,281.29,535.62Zm-24.66,9.51a3,3,0,0,1-.5-.53,1.47,1.47,0,0,0,.55-2l-.38-.57c.06-.22.13-.43.2-.64C257,542.53,257.48,544.14,256.63,545.12Zm9.24.21c-.35-1.12-.76-2.2-1.18-3.22-.09-.55-.19-1.11-.32-1.67a9.59,9.59,0,0,1,.71,1.15,10,10,0,0,1,.91,3.05C266,544.88,265.92,545.11,265.87,545.34Zm-26.41,11a26.39,26.39,0,0,0,2.08,2.54,25,25,0,0,1-3.67-4.29C238.38,555.15,238.91,555.74,239.46,556.3Z"/><path class="cls-12" d="M177.12,619.4c14.16.72,29,2.44,42.59-2.31-.3,2.82-.41,5.65-.63,8.48a41.86,41.86,0,0,1-6.63,3.25,1.29,1.29,0,0,1-1.32.82l-.86-.05a38,38,0,0,1-10.59,1.79c-7.78.19-15.39-2.23-22.18-5.93C177.42,623.43,177.28,621.41,177.12,619.4Z"/><path class="cls-10" d="M84.8,552.45a1.62,1.62,0,0,1-1.86.94,28.58,28.58,0,0,0,2.38,3.27,21.49,21.49,0,0,0,1.55,1.66C86.23,556.35,85.53,554.4,84.8,552.45Z"/><path class="cls-12" d="M90.51,560c-2.57-8.77-6.73-17-8.74-26A129.84,129.84,0,0,1,79,508c-2.48-.42-4.93-1-7.36-1.66a1.43,1.43,0,0,0-.82.29c0-.17.05-.33.08-.5q-1.44-.4-2.87-.83a49.07,49.07,0,0,0-.34,11.59,74.63,74.63,0,0,0,3.72,18.48,103.19,103.19,0,0,0,7.15,16.46c2.07,3.78,4.93,8.74,9.1,10.69A9.91,9.91,0,0,1,90.51,560Z"/><g id="_Group_2" data-name="&lt;Group&gt;"><path d="M739.72,512a34.84,34.84,0,0,1-2.43,24.82c-3.58,7.42-9.52,14-17.11,17.49-7.37,3.35-15.54,3.62-22.62-.53a115.06,115.06,0,0,1-20.06,26.94,113.9,113.9,0,0,1-56.34,30.92,45.09,45.09,0,0,1,2.78,8c7.15.56,14.45,1.31,21.21,3.77a49.64,49.64,0,0,1,17.24,11,117.84,117.84,0,0,1,17,20.57,127.65,127.65,0,0,1,18.89,49.2c2.36,6.68,4.23,13.67,4.37,20.79a48.7,48.7,0,0,1-7.17,26.27,38.07,38.07,0,0,1-15.68,13.9,69.4,69.4,0,0,1-16,5.31c1.35,17.42,1.73,34.91,2.13,52.37.25,10.77.55,21.51,1.29,32.26.37,5.4.9,10.8,1.15,16.21s.26,10.94.23,16.42c-.07,10.9-.46,21.8-.59,32.7-.14,10.61-.18,21.22-.27,31.83l.23,0a45.67,45.67,0,0,1,12.31,4.13,1.25,1.25,0,0,1,.76,1.17c1.44.23,1.88,2.55.21,2.89-9.78,2-19.92,1.11-29.62-.92a1.15,1.15,0,0,1-1-.4,1.23,1.23,0,0,1-.39-.73c-5.16-11.36-10.26-22.75-15-34.28a442.11,442.11,0,0,1-20.74-60.62c-2.65-10.42-5-20.91-7.46-31.38s-4.7-20.83-6.55-31.34a197.27,197.27,0,0,1-26.18-.69c-2.74,12.4-6.23,24.59-9.62,36.82q-4.36,15.7-8.39,31.5c-2.64,10.36-5.12,20.77-8.67,30.87-7.11,20.24-16.64,39.62-25.52,59.13a1.24,1.24,0,0,1-.39.72,1.15,1.15,0,0,1-1,.4c-9.71,2-19.84,2.94-29.62.92-1.68-.35-1.23-2.66.21-2.89a1.24,1.24,0,0,1,.76-1.17,45.65,45.65,0,0,1,12.31-4.13l.21,0c-.54-25.07,2.17-50,5.18-74.88,4.16-34.36,7.72-68.88,13.85-103a31.41,31.41,0,0,1-10.8-2c-16.26-6.57-24.5-25.1-25.3-41.69-1-19.78,7.2-38.24,15.27-55.84a68.73,68.73,0,0,1-9.5-4.5,1.32,1.32,0,0,1-1.15-.19A117.19,117.19,0,0,1,460.77,640c-8.54-11.9-15.07-25.05-20.71-38.53a1.27,1.27,0,0,1-.06-.92,10.28,10.28,0,0,1-2.53-.22,9.21,9.21,0,0,1-7.18-11.64,1.49,1.49,0,0,1,.35-.65,7.76,7.76,0,0,1-.35-6,1.45,1.45,0,0,1,.56-.79,8,8,0,0,1-2.49-3.28c-1.88-4.79,1.17-10.32,4.66-13.53,3.14-2.89,7.58-5.05,11.72-3.79,0-3.32-1.06-6.72-.77-10,.33-3.82,2.38-7.36,6.54-7.81,7-.76,9.18,10,9.61,15.07,0,0,0,0,0,.06l.13.18c9.55,15.71,22.21,29.26,35,42.34,3.17,3.23,6.42,6.39,9.51,9.71a97.52,97.52,0,0,0,9,9,23.25,23.25,0,0,0,11.15,5.1c3.06.53,6.17.79,9.24,1.22a1.38,1.38,0,0,1,.42-1.12c8.31-8.68,20.82-12.09,32.47-13.29,0-.14,0-.29,0-.43a1.2,1.2,0,0,1,0-.21,115.34,115.34,0,0,1-72.12-57.3,1.41,1.41,0,0,1-.64.79,22.26,22.26,0,0,1-12.52,3.42c-16.93-.73-30-17.18-31.25-33.31-.62-8.23,1.76-17.19,8.08-22.84a21.37,21.37,0,0,1,23.24-3.75c.1-3,.29-5.93.46-8.9l-.11.09c.07-.75.15-1.51.23-2.26,0-.53.06-1.06.09-1.59a1.57,1.57,0,0,1,.2-.69A114.81,114.81,0,0,1,651.09,398.7a1.47,1.47,0,0,1,1.22.67,115,115,0,0,1,58.75,97,20.45,20.45,0,0,1,11.48-.92C730.91,497.28,737.33,503.88,739.72,512Zm-3.1,18.34c2.35-8.07,2-17.44-3.17-24.4S719,496,711.11,499.62a114.17,114.17,0,0,1-12.16,51.5C714.64,560.44,732.24,545.32,736.62,530.34Zm-28.83-30.74q0-2.82-.14-5.62a1.56,1.56,0,0,1-.61-.35c-9.66-9-16.63-20.4-21.87-32.39A147.44,147.44,0,0,1,674,420.15a1.73,1.73,0,0,1,0-.4,112.11,112.11,0,0,0-11.26-9.59,71.65,71.65,0,0,0-1.61,11.49c-1.93,35.48,21,66.84,46,89.76A112.07,112.07,0,0,0,707.79,499.59ZM706.72,515a1.38,1.38,0,0,1-.25-.19c-4-3.61-7.89-7.35-11.6-11.27-22.8-24.05-41.27-56.06-35.82-90a223.67,223.67,0,0,1-59.62,46.18,246.86,246.86,0,0,1-24.6,11.47,289.37,289.37,0,0,1-27.68,9.86,302.6,302.6,0,0,1-61.68,10.73c-.16,5.22-.13,10.45.19,15.67a1.47,1.47,0,0,1-.07.55,111.44,111.44,0,0,0,83.57,99.62c.09.65.17,1.3.25,2a1.38,1.38,0,0,1,.58,1.16c0,4.49.93,8.95.5,13.45a1.14,1.14,0,0,1,0,.16c1.19,5.43,4.9,9.88,8.81,13.65,3.74,3.61,7.86,6.78,11.82,10.15a1.5,1.5,0,0,1,.22-.28c5.67-5.67,11.32-11.37,15.7-18.12a1.53,1.53,0,0,1,.4-.43,1.38,1.38,0,0,1-.07-.65q.75-7.47,1.49-14.94l0-.09h0c.1-1.13.21-2.26.32-3.39A111.63,111.63,0,0,0,706.72,515Zm-7.54,217.54c1.42-9.26-.58-18.39-3.62-27.12a1.43,1.43,0,0,1-.16-.46,1.52,1.52,0,0,1-.09-.51,135,135,0,0,0-5.74-22.38A117.52,117.52,0,0,0,661,637.18c-1.46-1.4-3-2.74-4.55-4,4.13,8.52,4.51,18.71,4.46,28A165.61,165.61,0,0,1,656.34,699a20.13,20.13,0,0,1,11,2.11c4.58,2.14,9,5.39,11.71,9.74,1,1.64-1.57,3.14-2.59,1.51a23.6,23.6,0,0,0-9.79-8.27c-3.27-1.59-7.43-3-11.09-2a1.35,1.35,0,0,1-1.46,1,15.45,15.45,0,0,0-1.67,3.19,44.63,44.63,0,0,1,12.57.39c1.89.34,1.09,3.23-.79,2.88a44.67,44.67,0,0,0-17.62.68c-5.45,1.23-11,3.17-15.44,6.64,2.12,18.05,6.66,35.81,7.44,54,3-.35,6.06-.67,9.09-1,4.26-.49,8.72-1,13.16-1.86a1.52,1.52,0,0,1,2.27-.44c9.23-1.91,18.2-5.16,24.88-11.75C694.16,749.75,697.87,741.06,699.18,732.54Zm8.17-242.77a111,111,0,0,0-30-66.58,140.65,140.65,0,0,0,10.82,37.55C693,471.39,699.06,481.51,707.35,489.77ZM677,958.13a42.13,42.13,0,0,0-9.83-3,1.24,1.24,0,0,1-.95-.66,1.4,1.4,0,0,1-1.48-1.45q0-4,.06-8c-5.14,1.7-10.55,2.23-15.8,3.51q1.82,4.06,3.67,8.11C660.66,958.32,669,959.21,677,958.13Zm-11.53-59.28a276.5,276.5,0,0,0-.44-32.84c-.95-10.68-1.62-21.43-1.85-32.14-.3-14.34-.53-28.71-1.16-43.05-18.57,6.79-37.8,14.06-57.82,14.27,1.94,10.28,4.27,20.48,6.65,30.66,2.45,10.45,4.79,20.93,7.55,31.31s6,20.52,9.6,30.58c4.86,13.51,10.35,26.78,16.11,39.92a1.55,1.55,0,0,1,.54-.14,71.28,71.28,0,0,0,20.23-4.32C665,921.68,665.15,910.27,665.51,898.85Zm-.64,43.05q0-2.8,0-5.61a74.34,74.34,0,0,1-19.53,4q1.21,2.74,2.43,5.46c5.61-1.42,11.43-1.92,16.91-3.85Zm-3-155.23q-.38-7.83-1-15.66c-7.34,1.36-14.86,2-22.23,2.89,0,.66,0,1.33,0,2a1.49,1.49,0,0,1-3,0c-.06-21.2-5.93-41.75-8-62.74-.19-1.92,2.8-1.9,3,0,0,.13,0,.25,0,.38a43,43,0,0,1,15.5-6.23c.6-.13,1.2-.24,1.8-.35a1.53,1.53,0,0,1-.85-1.67c3.54-20.2-.91-41.08-4.48-61a1.52,1.52,0,0,1,.75-1.63,1.18,1.18,0,0,1-1.57-.7c-2.55-5.82-6.41-10.8-10.18-15.85a1.22,1.22,0,0,1-1.41.3,10.64,10.64,0,0,0-5.59-.61c0,.46,0,.93,0,1.39a31.56,31.56,0,0,1-4,14,43.42,43.42,0,0,1-5.71,8.31,1.45,1.45,0,0,1,.25.83c0,15.57-.49,31.14-.5,46.71a1.48,1.48,0,0,1,.5,1.1v3a1.51,1.51,0,0,1-1.49,1.5h-1a1.47,1.47,0,0,1-1.29-.74,4.71,4.71,0,0,1-.44-1.82A3.57,3.57,0,0,0,611,699a1.53,1.53,0,0,1,.54-2l.26-.12c0-14.86.45-29.71.49-44.58A14.68,14.68,0,0,1,602,656c-1.91-.11-1.93-3.1,0-3,7.5.43,13-7.41,16.14-13.28a27.49,27.49,0,0,0,3.58-13.11,29.19,29.19,0,0,0-.4-4.51,1.68,1.68,0,0,1-.38-1.91,40.35,40.35,0,0,0-2.8-8q-3.16.61-6.37,1a1.52,1.52,0,0,1,0,.45l-1.49,14.94a1.51,1.51,0,0,1-.68,1.14,1.29,1.29,0,0,1,0,1.44c-4.53,7-10.32,12.88-16.17,18.73a1.37,1.37,0,0,1-1.13.43,1.59,1.59,0,0,1-2.47.57c-8.33-7.18-19.93-14.48-22.3-26.06a1.72,1.72,0,0,1,0-.53,2,2,0,0,1,0-.2,59.44,59.44,0,0,0-.34-10l-1.87.21a1.43,1.43,0,0,1,0,1.43q-3.16,5.9-6.34,11.78a1.59,1.59,0,0,1,0,.45c-.29,6.63,2.82,13.47,7.55,18.06,4,3.9,9.78,7.92,15.55,8.31,1.91.13,1.92,3.11,0,3a19.3,19.3,0,0,1-3.72-.63s0,0,0,.06c-2.48,13.61-2.2,28.1-.12,41.77a10.24,10.24,0,0,1,.67,4.15,1.63,1.63,0,0,1-1.09,1.46c-.49,1.44-2.94,1.3-2.9-.46a11.93,11.93,0,0,1,.12-1.34,1.59,1.59,0,0,1-.29-2.14c0-.09,0-.18,0-.27a2.24,2.24,0,0,1,.27-.86,2.17,2.17,0,0,1,.22-.31c-2.09-14.06-2.35-28.8.2-42.79a1.38,1.38,0,0,1,.05-.23,35,35,0,0,1-11.11-7.59,29,29,0,0,1-8.16-15.65c-9.1,16.92-18.1,34.34-24.65,52.48a229.75,229.75,0,0,0-.32,62.82,1,1,0,0,1-.32,1,1.44,1.44,0,0,1,.43,1.42c-2.53,11.28-4.69,22.64-6.6,34l.55.25a1.44,1.44,0,0,1,.72.21l.6.35c1.32-3.41,1.9-7.07,3.15-10.52.58-1.6,3.15-.91,2.57.71-1.3,3.58-1.95,7.33-3.31,10.87q2.85,1.19,5.76,2.24c.32-3.7,1.53-7.24,2.45-10.83a1.33,1.33,0,0,1,2.56.71c-.93,3.65-2.24,7.25-2.42,11q3.33,1.12,6.71,2.09c.75-3.44,1.28-6.92,2.12-10.35.4-1.66,3-1,2.56.71-.83,3.42-1.37,6.91-2.12,10.35q3.25.87,6.54,1.6c.49-2.94,1.06-5.86,1.44-8.82.22-1.67,2.87-1.69,2.66,0-.41,3.14-1,6.24-1.53,9.37q5.17,1.06,10.4,1.79a94.82,94.82,0,0,0,.43-10.66,1.33,1.33,0,0,1,2.66,0,97.78,97.78,0,0,1-.47,11q4.21.53,8.45.86c.29-2.95.32-5.91.32-8.88a1.33,1.33,0,0,1,2.66,0c0,3,0,6.06-.34,9.07q2.84.18,5.68.28c.11-3.12.44-6.23.46-9.35a1.33,1.33,0,0,1,2.66,0c0,3.15-.35,6.28-.46,9.43q4.63.09,9.26,0v-10.9a1.33,1.33,0,0,1,2.66,0v10.83q5.5-.2,11-.68c1.15-3.66.77-7.37.3-11.14-.21-1.7,2.45-1.68,2.66,0,.46,3.67.78,7.31-.12,10.88q3.72-.37,7.42-.86v-10a1.33,1.33,0,0,1,2.66,0v9.66c1.82-.26,3.62-.55,5.44-.86.23-3.16.63-6.34-.08-9.44-.38-1.67,2.18-2.38,2.56-.71.73,3.22.4,6.44.19,9.68,3.06-.56,6.11-1.18,9.14-1.86a65.83,65.83,0,0,0-.49-8c-.23-1.69,2.43-1.67,2.66,0a62.9,62.9,0,0,1,.47,7.36q3.67-.87,7.3-1.86c-.1-3.51-.54-7-1-10.47-.21-1.7,2.45-1.68,2.65,0,.41,3.23.82,6.47,1,9.73Q657.92,788,661.87,786.68Zm-4-125c.06-10.57-.24-22.32-6.58-31.29a1.31,1.31,0,0,1-.26-.91,38.92,38.92,0,0,0-7.42-3.42,61,61,0,0,0-10-2.34c4,5.37,8.17,10.6,10.87,16.78a1.62,1.62,0,0,1-.7,2.05,1.29,1.29,0,0,1,1.82,1c3.51,19.56,7.73,39.91,4.9,59.83A20.72,20.72,0,0,1,652,701a1.19,1.19,0,0,1,.69-.94l.11-.14a1,1,0,0,1,.33-.27A159.79,159.79,0,0,0,657.9,661.68Zm2-253.55q-4.21-2.93-8.69-5.48c-12.71,15.3-30.24,25.81-47.28,35.61-11.34,6.52-22.89,12.65-34.74,18.13a18.45,18.45,0,0,1,1.64,2.44,1.5,1.5,0,0,1-2.58,1.51,15.39,15.39,0,0,0-1.88-2.66q-9.32,4.21-18.9,7.84a360.65,360.65,0,0,1-61,16.9,1.61,1.61,0,0,1-.4,0c-.08.53-.16,1.07-.23,1.61a1.32,1.32,0,0,1,0,.17c-.1,1.52-.17,3-.24,4.57a300.89,300.89,0,0,0,44.79-6.52c7.43-1.68,14.81-3.63,22.08-5.93,6.45-2,12.73-4.55,19-7C605.27,456.13,636,435.45,659.9,408.12Zm-11.35-6.94a110.63,110.63,0,0,0-24.8-9.59q-4.11,4.43-8.54,8.55c-1.41,1.31-3.52-.8-2.11-2.12q3.76-3.5,7.29-7.23a111.28,111.28,0,0,0-24-2.61c-1.08,0-2.15,0-3.22,0a1.35,1.35,0,0,1-.46.66c-24.88,20.29-54.85,33.73-85.22,43.53l-.11,0a111.27,111.27,0,0,0-14.68,25.83l2.33-.71c39.69-12.2,80.18-27.35,112.32-54.46,1.46-1.23,3.59.87,2.11,2.11q-2.55,2.15-5.17,4.21c-33,25.76-73.13,40.35-112.78,52.32l-.15,0a110.17,110.17,0,0,0-4.77,17.54,356.27,356.27,0,0,0,60.09-16.72q8.73-3.31,17.23-7.12a10.62,10.62,0,0,0-7.13-1.77c-4.87.51-9.06,3.7-11.85,7.59-1.11,1.55-3.7.06-2.58-1.51,3.45-4.82,8.69-8.8,14.8-9.1a13.92,13.92,0,0,1,9.84,3.39c12.49-5.72,24.63-12.17,36.53-19.07C619.75,425.63,636.3,415.64,648.55,401.18ZM625.32,622.77l-.82-.07c0,.06,0,.11,0,.17C624.79,622.83,625,622.79,625.32,622.77ZM570.43,803.44a1.52,1.52,0,0,1-.34-.05c-14.77-3.76-29.61-7.39-43.06-14.71a1.49,1.49,0,0,1-.75-.41l-.88-.49-1.08-.48c-1.94,11.93-3.62,23.91-5.15,35.9-2.73,21.49-5.27,43-7.75,64.55-1.84,16-3.39,32.08-3.86,48.18,7.3,0,14.72,0,21.7-2.44a1.31,1.31,0,0,1,.91,0q2.42-5.37,4.78-10.77a295.24,295.24,0,0,0,11.75-30.31c3.17-10.25,5.59-20.71,8.29-31.09,4-15.44,8.6-30.75,12.58-46.21a1.6,1.6,0,0,1,.36-1.4Q569.23,808.58,570.43,803.44ZM510.77,428.21c27.61-9.22,54.81-21.62,77.73-39.75A111.75,111.75,0,0,0,510.77,428.21Zm51.71,186.54c-8.78,1.4-17.69,4.36-24.26,10.31a1.5,1.5,0,0,1-.08,1.12l-.23.49a1.62,1.62,0,0,1-1,2.27c-3.25,7-6.51,14-9.17,21.24-2.86,7.83-5.24,15.81-7.89,23.71l-1.15,3.42c1,.86.46,2.81-.91,2.69-4.53,13.54-8.88,27.51-8.18,41.88a1.4,1.4,0,0,1,1.18,1.41c.06,5.32,2,11.24,6,14.88,1.43,1.3-.69,3.4-2.11,2.11-4.57-4.15-6.82-10.89-6.91-16.95a1.46,1.46,0,0,1-1.17-1.39c-.73-14.7,3.7-29,8.33-42.85-3.15-1.05-6.31-2.09-9.43-3.22l-1.54,3.35c-8.15,17.93-16.31,37.7-12.84,57.81,1.53,8.85,5.1,17.58,11.18,24.29a31.48,31.48,0,0,0,9.41,7.32,29.48,29.48,0,0,0,12.37,2.78q2-11,4.48-22a1.36,1.36,0,0,1,.48-.8,1.4,1.4,0,0,1-.37-.8,237,237,0,0,1-1.16-50,141.43,141.43,0,0,0-5.81,40.74,1.5,1.5,0,0,1-3,0,134.37,134.37,0,0,1,1.14-19C524.78,681.56,544.73,647.9,562.47,614.75ZM525.25,648.2c2.5-6.73,5.51-13.17,8.53-19.66-3.4-.49-6.83-.72-10.2-1.4a25.24,25.24,0,0,1-11.1-5.08,91.35,91.35,0,0,1-9.46-9.34c-3.08-3.31-6.3-6.46-9.46-9.69-5.74-5.86-11.45-11.81-16.89-18q-1.55,2.49-3.18,4.91a24.69,24.69,0,0,0,6.8,5.21c1.75.82.23,3.39-1.51,2.58a25.85,25.85,0,0,1-7-5.28q-1.86,2.7-3.77,5.37a31.31,31.31,0,0,0,5.3,5.29c1.54,1.13,0,3.72-1.51,2.58a33.49,33.49,0,0,1-5.57-5.37c-.81,1.15-1.63,2.29-2.44,3.44a53.65,53.65,0,0,1,6.5,5.23c1.38,1.35-.74,3.46-2.11,2.11a50.12,50.12,0,0,0-6.09-4.9q-1.73,2.49-3.4,5a32,32,0,0,0,6,4.16c1.75.8.23,3.37-1.51,2.58a33.36,33.36,0,0,1-6.08-4.23c-.58.92-1.14,1.85-1.7,2.78a28.94,28.94,0,0,0,5.63,4.18c1.71.89.2,3.47-1.51,2.58a29.39,29.39,0,0,1-5.65-4.12c-.21.37-.43.74-.63,1.12a1.35,1.35,0,0,1-.77.68,154.16,154.16,0,0,0,10.59,17.16,114.82,114.82,0,0,0,29.44,28.73,1.36,1.36,0,0,1,1,.2c6.92,4.26,14.67,6.63,22.32,9.2q.53-1.58,1.06-3.16C519.7,664.79,522.2,656.41,525.25,648.2ZM526,942.65q1.34-2.91,2.66-5.83c-6.83,2.06-14.08,2.09-21.17,2.09q0,2.11-.06,4.22a37.23,37.23,0,0,0,17.35-.68A1.41,1.41,0,0,1,526,942.65Zm-6.42,14q2.54-5.56,5.09-11.12a40.35,40.35,0,0,1-17.25.63q0,3.42.08,6.83a1.37,1.37,0,0,1-1.47,1.45,1.24,1.24,0,0,1-1,.66,42.15,42.15,0,0,0-9.83,3C503.33,959.21,511.63,958.32,519.58,956.68Zm-26.8-405.24a1.36,1.36,0,0,1,1.14-.17,114,114,0,0,1-12.07-45.52l.16-.14a1.58,1.58,0,0,1-.16-.63c-.06-1.39-.08-2.79-.07-4.18a1.72,1.72,0,0,1-.4-.15c-8.19-4.39-18.54-1.41-23.69,6.2-4.84,7.16-5.34,16.4-2.73,24.49s7.85,15.29,15.18,19.52C477.23,555,485.59,555.86,492.77,551.44Zm-18.16,31.23a176.24,176.24,0,0,1-17-23,1.42,1.42,0,0,1-.22-.92,1.53,1.53,0,0,1-.32-.83c-.26-3.13-2.05-13.79-7.12-11.92-3.37,1.24-3.25,5.15-3,8.15s1,6.34.43,9.48c-.26,1.46-2,1.31-2.68.29-3.42-1.71-7.4.43-9.9,2.93-2.33,2.33-5.43,6.82-3.65,10.29,1.52,3,5.87,4.18,8.89,4.76,2.84.54,7.78,1.08,9.26-2.16a1.5,1.5,0,0,1,.16-.28c.32-3.77-4.6-6.43-8.1-5.83-1.89.32-2.69-2.56-.8-2.88a11.66,11.66,0,0,1,7.3,1.39,1.46,1.46,0,0,1,2.69-.37,20.23,20.23,0,0,0,4.74,6.34c1.47,1.25-.66,3.36-2.11,2.11-.23-.2-.45-.4-.67-.61a7.23,7.23,0,0,1-.48,1.95,1.53,1.53,0,0,1-.87.88,6.08,6.08,0,0,1-1.21,1.17c.08.15.16.29.27.45a1.26,1.26,0,0,1,.09,1.39,5.67,5.67,0,0,1-1.51,5.21,1.46,1.46,0,0,1,.57,1.53,10.45,10.45,0,0,1-6.88,8,1.6,1.6,0,0,1,.39.56c2.48,5.9,5.13,11.75,8.07,17.46.25-.45.49-.89.75-1.34a1.53,1.53,0,0,1,.78-1.34C459.22,604.11,467.72,593.92,474.61,582.67Zm-34.1,7.71c3.42.08,8.31-1.34,6.64-5.5a18.47,18.47,0,0,1-7.51,0,24.91,24.91,0,0,1-6.46-2.06l0,.1C431.65,587.78,436.19,590.28,440.51,590.38Zm5.78,2a13,13,0,0,1-5.78,1,13.44,13.44,0,0,1-7.57-2.56,6.17,6.17,0,0,0,5.32,6.68C442.18,598.21,445.17,595.86,446.29,592.34Z"/><path class="cls-4" d="M733.45,505.93c5.16,7,5.52,16.33,3.17,24.4-4.38,15-22,30.11-37.67,20.78a114.17,114.17,0,0,0,12.16-51.5C719,496,728.31,499,733.45,505.93Zm.33,17.06c2.55-7.73-6.27-13-12.86-9.88-6.07,2.88-8.59,10.31-11.78,15.7a1.49,1.49,0,0,0,2.58,1.51l.16-.28a1.54,1.54,0,0,0,.8-.18c4.29-2.26,6.25,2.7,6.22,6.44a7,7,0,0,1-2,5.3c-1.84,1.6-4.87.18-6.67-.88a1.49,1.49,0,0,0-1.51,2.58c2.88,1.69,6.67,3,9.7.87,2.47-1.7,3.38-4.8,3.5-7.65a12,12,0,0,0-2.6-8.2,5.75,5.75,0,0,0-5.41-1.94c1.74-3.3,3.51-6.59,6.28-9.14a7.12,7.12,0,0,1,7.34-1.71,5,5,0,0,1,3.4,6.67C730.3,524,733.18,524.81,733.78,523Z"/><path d="M720.93,513.11c6.59-3.13,15.41,2.14,12.86,9.88-.6,1.82-3.49,1-2.88-.79a5,5,0,0,0-3.4-6.67,7.12,7.12,0,0,0-7.34,1.71c-2.78,2.55-4.54,5.84-6.28,9.14a5.75,5.75,0,0,1,5.41,1.94,12,12,0,0,1,2.6,8.2c-.12,2.85-1,6-3.5,7.65-3,2.08-6.82.82-9.7-.87a1.49,1.49,0,0,1,1.51-2.58c1.8,1.06,4.83,2.48,6.67.88a7,7,0,0,0,2-5.3c0-3.74-1.93-8.7-6.22-6.44a1.54,1.54,0,0,1-.8.18l-.16.28a1.49,1.49,0,0,1-2.58-1.51C712.33,523.42,714.85,516,720.93,513.11Z"/><path class="cls-13" d="M707.65,494q.14,2.79.14,5.62a112.07,112.07,0,0,1-.63,11.82c-25-22.92-48-54.29-46-89.76a71.65,71.65,0,0,1,1.61-11.49A112.11,112.11,0,0,1,674,419.75a1.73,1.73,0,0,0,0,.4,147.44,147.44,0,0,0,11.19,41.08c5.24,12,12.21,23.44,21.87,32.39A1.56,1.56,0,0,0,707.65,494Z"/><path class="cls-4" d="M706.47,514.82a1.38,1.38,0,0,0,.25.19,111.63,111.63,0,0,1-97.57,95.25c-.11,1.13-.22,2.26-.32,3.39h0l0,.09q-.75,7.47-1.49,14.94a1.38,1.38,0,0,0,.07.65,1.53,1.53,0,0,0-.4.43c-4.39,6.75-10,12.45-15.7,18.12a1.5,1.5,0,0,0-.22.28c-4-3.36-8.08-6.53-11.82-10.15-3.92-3.77-7.63-8.22-8.81-13.65a1.14,1.14,0,0,0,0-.16c.43-4.5-.45-9-.5-13.45a1.38,1.38,0,0,0-.58-1.16c-.08-.65-.16-1.3-.25-2A111.44,111.44,0,0,1,485.6,508a1.47,1.47,0,0,0,.07-.55c-.32-5.22-.35-10.45-.19-15.67a302.6,302.6,0,0,0,61.68-10.73,289.37,289.37,0,0,0,27.68-9.86,246.86,246.86,0,0,0,24.6-11.47,223.67,223.67,0,0,0,59.62-46.18c-5.45,33.94,13,65.95,35.82,90C698.58,507.46,702.46,511.21,706.47,514.82Zm-61.52-58.47a1.5,1.5,0,0,0,2.58-1.51,15.34,15.34,0,0,0-11.6-7.8c-4.93-.64-9.92,1.39-13.66,4.51-1.48,1.24.65,3.34,2.11,2.12C630.84,448.27,640.54,448.68,644.95,456.35Zm-.51,39.06c2.33-7.67-2.18-16-9.47-18.87l-.17-.07-.2-.06a12.58,12.58,0,0,0-14.2,4A18.38,18.38,0,0,0,617,495.26,13.67,13.67,0,0,0,629,506,14.54,14.54,0,0,0,644.44,495.41Zm-32.83,17.76c.48-1.87-2.4-2.66-2.88-.8-.83,3.2-3.7,5.89-6,8a29.42,29.42,0,0,1-9.94,6.39c-3.85,1.31-7.28-1.56-9.85-4.13a71.35,71.35,0,0,1-7.95-10.33c-1.09-1.58-3.68-.09-2.58,1.51,2.78,4,5.54,8.14,9.07,11.57,3,3,7.12,5.56,11.52,4.44,4.19-1.07,8-4,11.21-6.77C607.14,520.52,610.59,517.12,611.61,513.17Zm-21.78-7.61c1.19,1.51,3.29-.62,2.11-2.11a9.33,9.33,0,0,1-1.6-8.51,1.5,1.5,0,0,0-2.88-.79A12.48,12.48,0,0,0,589.83,505.56Zm-20.4-4.81a18.21,18.21,0,0,0-2.61-15,12.66,12.66,0,0,0-15-4.71l-.17.07a15.94,15.94,0,0,0-9.79,17.51,14.58,14.58,0,0,0,14.62,12A13.81,13.81,0,0,0,569.44,500.75Z"/><path class="cls-14" d="M695.56,705.42c3,8.73,5,17.86,3.62,27.12-1.31,8.52-5,17.21-11.21,23.31-6.68,6.59-15.65,9.84-24.88,11.75a1.52,1.52,0,0,0-2.27.44c-4.44.82-8.9,1.36-13.16,1.86-3,.36-6.06.68-9.09,1-.78-18.19-5.32-35.95-7.44-54,4.45-3.47,10-5.41,15.44-6.64a44.67,44.67,0,0,1,17.62-.68c1.88.34,2.69-2.54.79-2.88a44.63,44.63,0,0,0-12.57-.39,15.45,15.45,0,0,1,1.67-3.19,1.35,1.35,0,0,0,1.46-1c3.67-1,7.82.36,11.09,2a23.6,23.6,0,0,1,9.79,8.27c1,1.64,3.6.14,2.59-1.51-2.69-4.35-7.13-7.6-11.71-9.74a20.13,20.13,0,0,0-11-2.11,165.61,165.61,0,0,0,4.55-37.85c.05-9.28-.32-19.48-4.46-28,1.58,1.25,3.1,2.59,4.55,4a117.52,117.52,0,0,1,28.58,44.89,135,135,0,0,1,5.74,22.38,1.52,1.52,0,0,0,.09.51A1.43,1.43,0,0,0,695.56,705.42ZM671.81,712a1.5,1.5,0,0,0,0-2.11,9,9,0,0,0-2.29-1.56,1.49,1.49,0,1,0-1.51,2.58c.3.15.6.31.89.47s.29.18.43.28l0,0,.33.31A1.51,1.51,0,0,0,671.81,712Z"/><path class="cls-13" d="M677.38,423.19a111,111,0,0,1,30,66.58c-8.29-8.26-14.35-18.39-19.15-29A140.65,140.65,0,0,1,677.38,423.19Z"/><path class="cls-8" d="M667.21,955.12a42.13,42.13,0,0,1,9.83,3c-8.08,1.07-16.37.19-24.32-1.45q-1.85-4-3.67-8.11c5.25-1.28,10.66-1.82,15.8-3.51q0,4-.06,8a1.4,1.4,0,0,0,1.48,1.45A1.24,1.24,0,0,0,667.21,955.12Z"/><path d="M671.81,709.92A1.49,1.49,0,0,1,669.7,712l-.33-.31,0,0c-.14-.1-.28-.2-.43-.28s-.59-.32-.89-.47a1.49,1.49,0,1,1,1.51-2.58A9,9,0,0,1,671.81,709.92Z"/><path class="cls-15" d="M665.07,866a276.5,276.5,0,0,1,.44,32.84c-.35,11.41-.49,22.83-.58,34.25a71.28,71.28,0,0,1-20.23,4.32,1.55,1.55,0,0,0-.54.14c-5.76-13.15-11.25-26.41-16.11-39.92-3.62-10.06-6.85-20.25-9.6-30.58s-5.11-20.86-7.55-31.31c-2.38-10.18-4.71-20.38-6.65-30.66,20-.21,39.25-7.49,57.82-14.27.63,14.34.86,28.71,1.16,43.05C663.44,844.59,664.12,855.34,665.07,866Z"/><path class="cls-5" d="M664.91,936.3q0,2.8,0,5.61l-.14,0c-5.48,1.93-11.31,2.43-16.91,3.85q-1.22-2.72-2.43-5.46A74.34,74.34,0,0,0,664.91,936.3Z"/><path class="cls-14" d="M660.9,771q.6,7.82,1,15.66-3.95,1.3-7.95,2.44c-.13-3.26-.55-6.5-1-9.73-.21-1.68-2.86-1.7-2.65,0,.44,3.48.88,7,1,10.47q-3.64,1-7.3,1.86a62.9,62.9,0,0,0-.47-7.36c-.23-1.67-2.89-1.69-2.66,0a65.83,65.83,0,0,1,.49,8c-3,.68-6.08,1.31-9.14,1.86.22-3.24.54-6.47-.19-9.68-.38-1.67-2.94-1-2.56.71.7,3.1.31,6.28.08,9.44-1.81.31-3.62.6-5.44.86v-9.66a1.33,1.33,0,0,0-2.66,0v10q-3.71.49-7.42.86c.9-3.57.58-7.21.12-10.88-.21-1.68-2.87-1.7-2.66,0,.47,3.77.85,7.48-.3,11.14q-5.48.47-11,.68V786.86a1.33,1.33,0,0,0-2.66,0v10.9q-4.63.11-9.26,0c.11-3.15.44-6.28.46-9.43a1.33,1.33,0,0,0-2.66,0c0,3.12-.35,6.23-.46,9.35q-2.85-.1-5.68-.28c.31-3,.33-6,.34-9.07a1.33,1.33,0,0,0-2.66,0c0,3,0,5.93-.32,8.88q-4.24-.33-8.45-.86a97.78,97.78,0,0,0,.47-11,1.33,1.33,0,0,0-2.66,0,94.82,94.82,0,0,1-.43,10.66q-5.23-.73-10.4-1.79c.51-3.12,1.13-6.23,1.53-9.37.22-1.69-2.44-1.67-2.66,0-.38,3-.95,5.88-1.44,8.82q-3.29-.73-6.54-1.6c.75-3.44,1.29-6.93,2.12-10.35.41-1.66-2.16-2.37-2.56-.71-.83,3.43-1.37,6.91-2.12,10.35q-3.38-1-6.71-2.09c.18-3.79,1.49-7.39,2.42-11a1.33,1.33,0,0,0-2.56-.71c-.92,3.6-2.13,7.14-2.45,10.83q-2.91-1.05-5.76-2.24c1.36-3.54,2-7.3,3.31-10.87.58-1.61-2-2.3-2.57-.71-1.24,3.44-1.83,7.1-3.15,10.52l-.6-.35a1.44,1.44,0,0,0-.72-.21l-.55-.25c1.91-11.4,4.07-22.76,6.6-34a1.44,1.44,0,0,0-.43-1.42,1,1,0,0,0,.32-1,229.75,229.75,0,0,1,.32-62.82c6.55-18.14,15.56-35.56,24.65-52.48a29,29,0,0,0,8.16,15.65,35,35,0,0,0,11.11,7.59,1.38,1.38,0,0,0-.05.23c-2.55,14-2.3,28.73-.2,42.79a2.17,2.17,0,0,0-.22.31,2.24,2.24,0,0,0-.27.86c0,.09,0,.18,0,.27a1.59,1.59,0,0,0,.29,2.14,11.93,11.93,0,0,0-.12,1.34c0,1.76,2.41,1.9,2.9.46a1.63,1.63,0,0,0,1.09-1.46,10.24,10.24,0,0,0-.67-4.15c-2.08-13.67-2.36-28.16.12-41.77,0,0,0,0,0-.06a19.3,19.3,0,0,0,3.72.63c1.92.13,1.91-2.86,0-3-5.77-.38-11.53-4.41-15.55-8.31-4.73-4.59-7.84-11.44-7.55-18.06a1.59,1.59,0,0,0,0-.45q3.18-5.88,6.34-11.78a1.43,1.43,0,0,0,0-1.43l1.87-.21a59.44,59.44,0,0,1,.34,10,2,2,0,0,0,0,.2,1.72,1.72,0,0,0,0,.53c2.37,11.58,14,18.87,22.3,26.06a1.59,1.59,0,0,0,2.47-.57,1.37,1.37,0,0,0,1.13-.43c5.85-5.85,11.64-11.76,16.17-18.73a1.29,1.29,0,0,0,0-1.44,1.51,1.51,0,0,0,.68-1.14l1.49-14.94a1.52,1.52,0,0,0,0-.45q3.2-.43,6.37-1a40.35,40.35,0,0,1,2.8,8,1.68,1.68,0,0,0,.38,1.91,29.19,29.19,0,0,1,.4,4.51,27.49,27.49,0,0,1-3.58,13.11c-3.1,5.86-8.65,13.71-16.14,13.28-1.93-.11-1.91,2.88,0,3a14.68,14.68,0,0,0,10.26-3.8c0,14.86-.47,29.72-.49,44.58l-.26.12a1.53,1.53,0,0,0-.54,2,3.57,3.57,0,0,1,.05,1.17,4.71,4.71,0,0,0,.44,1.82,1.47,1.47,0,0,0,1.29.74h1a1.51,1.51,0,0,0,1.49-1.5v-3a1.48,1.48,0,0,0-.5-1.1c0-15.57.49-31.14.5-46.71a1.45,1.45,0,0,0-.25-.83,43.42,43.42,0,0,0,5.71-8.31,31.56,31.56,0,0,0,4-14c0-.46,0-.93,0-1.39a10.64,10.64,0,0,1,5.59.61,1.22,1.22,0,0,0,1.41-.3c3.77,5.05,7.63,10,10.18,15.85a1.18,1.18,0,0,0,1.57.7,1.52,1.52,0,0,0-.75,1.63c3.57,19.88,8,40.75,4.48,61a1.53,1.53,0,0,0,.85,1.67c-.6.11-1.2.22-1.8.35a43,43,0,0,0-15.5,6.23c0-.13,0-.25,0-.38-.19-1.9-3.17-1.92-3,0,2,21,7.91,41.55,8,62.74a1.49,1.49,0,0,0,3,0c0-.66,0-1.33,0-2C646,773.06,653.56,772.39,660.9,771Zm-33.66,9.85c1.93.08,1.93-2.9,0-3-23.68-1-47.85-1.34-70.81-7.91a1.49,1.49,0,0,0-.79,2.88C578.84,779.51,603.3,779.85,627.24,780.88Zm-1.39-67.78c1.87.46,2.67-2.43.79-2.88-17.42-4.21-35.47-2.63-53.18-2-1.93.06-1.93,3.06,0,3C590.89,710.59,608.71,709,625.85,713.1Zm-61.06.81a1.49,1.49,0,0,0-2.58-1.51,106.32,106.32,0,0,0-13.65,55.54c0,1.92,3,1.93,3,0C551.11,749.07,555.35,730.33,564.79,713.91Z"/><path class="cls-16" d="M651.32,630.39c6.34,9,6.64,20.71,6.58,31.29a159.79,159.79,0,0,1-4.8,38,1,1,0,0,0-.33.27l-.11.14a1.19,1.19,0,0,0-.69.94,20.72,20.72,0,0,0-1.45,2.33c2.83-19.92-1.39-40.27-4.9-59.83a1.29,1.29,0,0,0-1.82-1,1.62,1.62,0,0,0,.7-2.05c-2.7-6.18-6.89-11.41-10.87-16.78a61,61,0,0,1,10,2.34,38.92,38.92,0,0,1,7.42,3.42A1.31,1.31,0,0,0,651.32,630.39Z"/><path class="cls-13" d="M651.21,402.65q4.48,2.54,8.69,5.48c-23.95,27.33-54.63,48-88.41,61.19-6.3,2.46-12.58,5-19,7-7.27,2.29-14.65,4.25-22.08,5.93a300.89,300.89,0,0,1-44.79,6.52c.07-1.52.15-3,.24-4.57a1.32,1.32,0,0,0,0-.17c.08-.54.15-1.08.23-1.61a1.61,1.61,0,0,0,.4,0,360.65,360.65,0,0,0,61-16.9q9.59-3.61,18.9-7.84a15.39,15.39,0,0,1,1.88,2.66,1.5,1.5,0,0,0,2.58-1.51,18.45,18.45,0,0,0-1.64-2.44c11.85-5.48,23.4-11.61,34.74-18.13C621,428.46,638.5,417.95,651.21,402.65Z"/><path d="M647.53,454.84a1.5,1.5,0,0,1-2.58,1.51c-4.41-7.67-14.11-8.09-20.57-2.69-1.46,1.23-3.59-.88-2.11-2.12,3.73-3.12,8.72-5.15,13.66-4.51A15.34,15.34,0,0,1,647.53,454.84Z"/><path d="M635,476.54c7.28,2.86,11.8,11.2,9.47,18.87A14.54,14.54,0,0,1,629,506a13.67,13.67,0,0,1-12-10.73,18.38,18.38,0,0,1,3.41-14.87,12.58,12.58,0,0,1,14.2-4l.2.06Zm4.79,21.82c4.42-6.59,1.86-16.12-5.76-19a14.26,14.26,0,0,0-1.8-.52c-10.77-2.23-16.76,13.9-9.65,21C627.36,504.57,635.9,504.11,639.76,498.36Z"/><path d="M634,479.35c7.61,2.89,10.18,12.42,5.76,19-3.86,5.75-12.4,6.22-17.21,1.44-7.11-7.07-1.12-23.21,9.65-21A14.26,14.26,0,0,1,634,479.35Z"/><path class="cls-13" d="M623.75,391.6a110.63,110.63,0,0,1,24.8,9.59c-12.25,14.46-28.8,24.45-45,33.86-11.9,6.9-24,13.35-36.53,19.07a13.92,13.92,0,0,0-9.84-3.39c-6.11.3-11.36,4.28-14.8,9.1-1.12,1.57,1.47,3.06,2.58,1.51,2.78-3.89,7-7.08,11.85-7.59a10.62,10.62,0,0,1,7.13,1.77q-8.51,3.8-17.23,7.12a356.27,356.27,0,0,1-60.09,16.72,110.17,110.17,0,0,1,4.77-17.54l.15,0c39.64-12,79.81-26.56,112.78-52.32q2.63-2.06,5.17-4.21c1.48-1.25-.65-3.35-2.11-2.11C575.2,430.24,534.72,445.4,495,457.59l-2.33.71a111.27,111.27,0,0,1,14.68-25.83l.11,0c30.37-9.8,60.34-23.24,85.22-43.53a1.35,1.35,0,0,0,.46-.66c1.07,0,2.15,0,3.22,0a111.28,111.28,0,0,1,24,2.61q-3.54,3.72-7.29,7.23c-1.41,1.32.7,3.43,2.11,2.12Q619.63,396,623.75,391.6Z"/><path d="M627.24,777.89c1.93.08,1.93,3.07,0,3-23.94-1-48.39-1.37-71.61-8a1.49,1.49,0,0,1,.79-2.88C579.39,776.56,603.55,776.87,627.24,777.89Z"/><path d="M626.64,710.23c1.87.45,1.08,3.33-.79,2.88-17.14-4.15-35-2.51-52.39-1.94-1.93.07-1.93-2.92,0-3C591.17,707.59,609.22,706,626.64,710.23Z"/><path d="M608.73,512.37c.48-1.86,3.36-1.07,2.88.8-1,3.95-4.47,7.35-7.45,9.92-3.21,2.77-7,5.7-11.21,6.77-4.4,1.13-8.47-1.47-11.52-4.44-3.53-3.43-6.29-7.53-9.07-11.57-1.09-1.59,1.5-3.08,2.58-1.51a71.35,71.35,0,0,0,7.95,10.33c2.57,2.58,6,5.44,9.85,4.13a29.42,29.42,0,0,0,9.94-6.39C605,518.26,607.9,515.57,608.73,512.37Z"/><path d="M591.94,503.44c1.19,1.49-.91,3.62-2.11,2.11a12.48,12.48,0,0,1-2.38-11.41,1.5,1.5,0,0,1,2.88.79A9.33,9.33,0,0,0,591.94,503.44Z"/><path class="cls-15" d="M570.09,803.39a1.52,1.52,0,0,0,.34.05q-1.2,5.14-2.5,10.24a1.6,1.6,0,0,0-.36,1.4c-4,15.45-8.57,30.77-12.58,46.21-2.69,10.38-5.12,20.84-8.29,31.09A295.24,295.24,0,0,1,535,922.7q-2.35,5.41-4.78,10.77a1.31,1.31,0,0,0-.91,0c-7,2.42-14.4,2.44-21.7,2.44.47-16.11,2-32.18,3.86-48.18,2.47-21.52,5-43.06,7.75-64.55,1.53-12,3.21-24,5.15-35.9l1.08.48.88.49a1.49,1.49,0,0,0,.75.41C540.48,796,555.32,799.62,570.09,803.39Z"/><path d="M566.83,485.79a18.21,18.21,0,0,1,2.61,15,13.81,13.81,0,0,1-12.93,10,14.58,14.58,0,0,1-14.62-12,15.94,15.94,0,0,1,9.79-17.51l.17-.07A12.66,12.66,0,0,1,566.83,485.79ZM565,503.35c2.78-4.12,2.66-9.92.38-14.25-2.62-4.95-7.38-7-12.72-5.14a11,11,0,0,0-2,1c-6.57,4.19-8.2,14.07-2.33,19.62C552.83,508.9,561.24,508.88,565,503.35Z"/><path d="M565.35,489.11c2.29,4.33,2.41,10.13-.38,14.25-3.73,5.53-12.14,5.55-16.71,1.24C542.4,499,544,489.16,550.59,485a11,11,0,0,1,2-1C558,482.12,562.74,484.16,565.35,489.11Z"/><path d="M562.21,712.4a1.49,1.49,0,0,1,2.58,1.51c-9.44,16.42-13.68,35.16-13.24,54,0,1.93-2.95,1.92-3,0A106.32,106.32,0,0,1,562.21,712.4Z"/><path class="cls-13" d="M588.5,388.47c-22.91,18.12-50.11,30.52-77.73,39.75A111.75,111.75,0,0,1,588.5,388.47Z"/><path class="cls-16" d="M538.22,625.06c6.57-5.95,15.48-8.91,24.26-10.31-17.75,33.15-37.69,66.8-42.63,104.75a134.37,134.37,0,0,0-1.14,19,1.5,1.5,0,0,0,3,0,141.43,141.43,0,0,1,5.81-40.74,237,237,0,0,0,1.16,50,1.4,1.4,0,0,0,.37.8,1.36,1.36,0,0,0-.48.8q-2.46,11-4.48,22a29.48,29.48,0,0,1-12.37-2.78,31.48,31.48,0,0,1-9.41-7.32c-6.08-6.71-9.65-15.45-11.18-24.29-3.47-20.11,4.7-39.88,12.84-57.81l1.54-3.35c3.12,1.13,6.28,2.17,9.43,3.22-4.63,13.86-9.06,28.16-8.33,42.85a1.46,1.46,0,0,0,1.17,1.39c.09,6.05,2.34,12.8,6.91,16.95,1.42,1.29,3.54-.81,2.11-2.11-4-3.64-6-9.56-6-14.88a1.4,1.4,0,0,0-1.18-1.41c-.7-14.36,3.65-28.33,8.18-41.88,1.37.12,2-1.83.91-2.69l1.15-3.42c2.65-7.9,5-15.88,7.89-23.71,2.66-7.29,5.92-14.23,9.17-21.24a1.62,1.62,0,0,0,1-2.27l.23-.49A1.5,1.5,0,0,0,538.22,625.06Z"/><path class="cls-14" d="M533.77,628.54c-3,6.49-6,12.93-8.53,19.66-3,8.21-5.55,16.59-8.33,24.9q-.52,1.58-1.06,3.16c-7.65-2.57-15.4-4.94-22.32-9.2a1.36,1.36,0,0,0-1-.2,114.82,114.82,0,0,1-29.44-28.73A154.16,154.16,0,0,1,452.47,621a1.35,1.35,0,0,0,.77-.68c.2-.38.42-.75.63-1.12a29.39,29.39,0,0,0,5.65,4.12c1.7.89,3.22-1.69,1.51-2.58a28.94,28.94,0,0,1-5.63-4.18c.55-.93,1.12-1.86,1.7-2.78a33.36,33.36,0,0,0,6.08,4.23c1.74.79,3.26-1.78,1.51-2.58a32,32,0,0,1-6-4.16q1.66-2.54,3.4-5a50.12,50.12,0,0,1,6.09,4.9c1.38,1.35,3.49-.76,2.11-2.11a53.65,53.65,0,0,0-6.5-5.23c.8-1.15,1.62-2.29,2.44-3.44a33.49,33.49,0,0,0,5.57,5.37c1.56,1.14,3-1.45,1.51-2.58a31.31,31.31,0,0,1-5.3-5.29q1.9-2.67,3.77-5.37a25.85,25.85,0,0,0,7,5.28c1.73.81,3.25-1.77,1.51-2.58a24.69,24.69,0,0,1-6.8-5.21q1.62-2.43,3.18-4.91c5.44,6.19,11.15,12.14,16.89,18,3.16,3.22,6.39,6.38,9.46,9.69a91.35,91.35,0,0,0,9.46,9.34,25.24,25.24,0,0,0,11.1,5.08C526.94,627.82,530.38,628,533.77,628.54Z"/><path class="cls-5" d="M528.66,936.82q-1.33,2.92-2.66,5.83a1.41,1.41,0,0,0-1.22-.2,37.23,37.23,0,0,1-17.35.68q0-2.11.06-4.22C514.58,938.91,521.83,938.88,528.66,936.82Z"/><path class="cls-8" d="M524.67,945.56q-2.55,5.56-5.09,11.12c-7.95,1.64-16.25,2.52-24.33,1.45a42.15,42.15,0,0,1,9.83-3,1.24,1.24,0,0,0,1-.66,1.37,1.37,0,0,0,1.47-1.45q-.08-3.41-.08-6.83A40.35,40.35,0,0,0,524.67,945.56Z"/><path class="cls-4" d="M493.91,551.26a1.36,1.36,0,0,0-1.14.17c-7.18,4.42-15.54,3.51-22.64-.59-7.33-4.23-12.6-11.55-15.18-19.52s-2.12-17.33,2.73-24.49c5.15-7.61,15.5-10.59,23.69-6.2a1.72,1.72,0,0,0,.4.15c0,1.39,0,2.79.07,4.18a1.58,1.58,0,0,0,.16.63l-.16.14A114,114,0,0,0,493.91,551.26Zm-11.17-7.46a1.49,1.49,0,0,0-1.51-2.58c-2,1.18-4.59,2.31-6.69.87-1.47-1-1.94-3.35-2-5.07a9.59,9.59,0,0,1,1.61-6c1.12-1.58,2.88-1.61,4.6-.7a1.55,1.55,0,0,0,.8.18l.16.28a1.49,1.49,0,0,0,2.58-1.51c-3.28-5.54-5.72-12.53-11.78-15.7-6.57-3.44-15.35,2.34-12.86,9.88.6,1.82,3.49,1,2.89-.79a5,5,0,0,1,3-6.53c2.85-1.19,5.5-.38,7.74,1.57,2.82,2.45,4.58,5.82,6.31,9.14a5.93,5.93,0,0,0-5.31,1.8c-2,2.1-2.74,5.29-2.72,8.12s1,6,3.35,7.76C475.9,546.8,479.82,545.52,482.74,543.8Z"/><path d="M481.23,541.22a1.49,1.49,0,0,1,1.51,2.58c-2.92,1.71-6.84,3-9.85.76-2.38-1.78-3.33-4.89-3.35-7.76s.71-6,2.72-8.12a5.93,5.93,0,0,1,5.31-1.8c-1.73-3.33-3.49-6.7-6.31-9.14-2.25-1.94-4.89-2.76-7.74-1.57a5,5,0,0,0-3,6.53c.6,1.83-2.28,2.61-2.89.79-2.49-7.53,6.29-13.31,12.86-9.88,6.06,3.17,8.5,10.15,11.78,15.7a1.49,1.49,0,0,1-2.58,1.51l-.16-.28a1.55,1.55,0,0,1-.8-.18c-1.72-.91-3.49-.87-4.6.7a9.59,9.59,0,0,0-1.61,6c.07,1.72.54,4.06,2,5.07C476.65,543.54,479.23,542.4,481.23,541.22Z"/><path class="cls-4" d="M457.65,559.67a176.24,176.24,0,0,0,17,23c-6.89,11.25-15.39,21.44-22.08,32.82a1.53,1.53,0,0,0-.78,1.34c-.26.45-.5.89-.75,1.34-2.93-5.71-5.59-11.56-8.07-17.46a1.6,1.6,0,0,0-.39-.56,10.45,10.45,0,0,0,6.88-8,1.46,1.46,0,0,0-.57-1.53,5.67,5.67,0,0,0,1.51-5.21,1.26,1.26,0,0,0-.09-1.39c-.1-.16-.19-.31-.27-.45a6.08,6.08,0,0,0,1.21-1.17,1.53,1.53,0,0,0,.87-.88,7.23,7.23,0,0,0,.48-1.95c.22.21.44.41.67.61,1.45,1.25,3.58-.86,2.11-2.11a20.23,20.23,0,0,1-4.74-6.34,1.46,1.46,0,0,0-2.69.37,11.66,11.66,0,0,0-7.3-1.39c-1.9.32-1.09,3.2.8,2.88,3.51-.6,8.43,2.06,8.1,5.83a1.5,1.5,0,0,0-.16.28c-1.48,3.24-6.41,2.7-9.26,2.16-3-.58-7.37-1.79-8.89-4.76-1.78-3.47,1.31-8,3.65-10.29,2.5-2.5,6.48-4.64,9.9-2.93.64,1,2.42,1.17,2.68-.29.55-3.14-.17-6.35-.43-9.48s-.38-6.91,3-8.15c5.07-1.87,6.86,8.79,7.12,11.92a1.53,1.53,0,0,0,.32.83A1.42,1.42,0,0,0,457.65,559.67Z"/><path class="cls-4" d="M447.15,584.88c1.67,4.15-3.23,5.57-6.64,5.5-4.32-.1-8.86-2.6-7.36-7.49l0-.1a24.91,24.91,0,0,0,6.46,2.06A18.47,18.47,0,0,0,447.15,584.88Z"/><path class="cls-4" d="M440.51,593.36a13,13,0,0,0,5.78-1c-1.12,3.52-4.11,5.87-8,5.15a6.17,6.17,0,0,1-5.32-6.68A13.44,13.44,0,0,0,440.51,593.36Z"/></g><path class="cls-10" d="M532.89,530.7l.38.57a1.47,1.47,0,0,1-.55,2,3.08,3.08,0,0,0,.5.53c.85-1,.35-2.59-.12-3.77C533,530.27,533,530.48,532.89,530.7Z"/><path class="cls-10" d="M541,529.15q.19.84.32,1.67c.43,1,.83,2.1,1.18,3.22,0-.23.08-.46.12-.7a10.08,10.08,0,0,0-.91-3.05A9.57,9.57,0,0,0,541,529.15Z"/><path class="cls-10" d="M518.12,547.55A25.9,25.9,0,0,1,516,545c-.55-.56-1.09-1.15-1.59-1.76A24.81,24.81,0,0,0,518.12,547.55Z"/><path class="cls-11" d="M557.87,524.33c-2.45-6.79-8.24-11.6-14.91-13.94-.47-.31-1-.61-1.44-.89a20.89,20.89,0,0,0-15-2.37,23.39,23.39,0,0,0-14.33,10.57,18.37,18.37,0,0,0-2.3,5.9,21.62,21.62,0,0,0-2,7.74,20.63,20.63,0,0,0,1.94,10A25,25,0,0,0,517.22,553a19.5,19.5,0,0,0,15.93,4.53,22.65,22.65,0,0,0,12.37-2.38,23.28,23.28,0,0,0,11.32-14A22.72,22.72,0,0,0,557.87,524.33Zm-24.66,9.5a3.08,3.08,0,0,1-.5-.53,1.47,1.47,0,0,0,.55-2l-.38-.57c.06-.22.13-.43.2-.64C533.56,531.24,534.06,532.85,533.21,533.83Zm9.24.21c-.35-1.12-.76-2.2-1.18-3.22q-.13-.83-.32-1.67a9.57,9.57,0,0,1,.71,1.15,10.08,10.08,0,0,1,.91,3.05C542.54,533.59,542.5,533.82,542.46,534ZM516,545a25.9,25.9,0,0,0,2.08,2.54,24.81,24.81,0,0,1-3.67-4.29C515,543.86,515.49,544.45,516,545Z"/><path class="cls-10" d="M648.42,532.62a1.46,1.46,0,0,1-.52-2l.38-.58c-.06-.21-.12-.41-.2-.62-.42,1.12-1,3-.18,3.75A3.39,3.39,0,0,0,648.42,532.62Z"/><path class="cls-10" d="M638.7,533.63c.22-.75.46-1.47.7-2.13q.21-.57.44-1.14c.09-.61.21-1.21.35-1.81a10.28,10.28,0,0,0-1.54,4.78Z"/><path class="cls-10" d="M667.08,542.13a28.56,28.56,0,0,1-1.9,2.15,26.12,26.12,0,0,1-1.73,2.23A24.39,24.39,0,0,0,667.08,542.13Z"/><path class="cls-11" d="M671.75,523.9c-.17-.42-.35-.83-.54-1.23-2.19-9.41-11.51-16.78-21.27-16.74a21.24,21.24,0,0,0-11.72,3.74c-8.58,3-15.53,10.43-16.09,19.83a22.9,22.9,0,0,0,2.22,10.82,20.79,20.79,0,0,0,2.57,6,22,22,0,0,0,20.74,10.62A19.7,19.7,0,0,0,667.82,548a25.31,25.31,0,0,0,3.85-8.56A20.78,20.78,0,0,0,671.75,523.9Zm-23.66,5.5c.07.21.14.41.2.62l-.38.58a1.46,1.46,0,0,0,.52,2,3.39,3.39,0,0,1-.51.54C647,532.39,647.67,530.53,648.09,529.41Zm-8.26,1q-.22.57-.44,1.14c-.24.66-.48,1.38-.7,2.13l-.06-.3a10.28,10.28,0,0,1,1.54-4.78C640,529.15,639.92,529.75,639.83,530.36Zm25.34,13.91a28.56,28.56,0,0,0,1.9-2.15,24.39,24.39,0,0,1-3.64,4.37A26.12,26.12,0,0,0,665.17,544.28Z"/><path class="cls-12" d="M611.15,609.61c-14.16.72-29,2.44-42.59-2.31.3,2.82.41,5.65.63,8.48a42,42,0,0,0,6.63,3.25,1.29,1.29,0,0,0,1.32.82l.85-.05a37.94,37.94,0,0,0,10.59,1.79c7.78.19,15.39-2.23,22.18-5.93C610.85,613.64,611,611.62,611.15,609.61Z"/><path class="cls-12" d="M493.94,552c-2.57-8.78-6.73-17-8.74-26a129.89,129.89,0,0,1-2.77-26c-2.48-.43-4.93-1-7.36-1.66a1.43,1.43,0,0,0-.82.29c0-.17.05-.33.08-.5q-1.44-.4-2.87-.83a49.15,49.15,0,0,0-.34,11.59,74.51,74.51,0,0,0,3.73,18.48A103,103,0,0,0,482,543.86c2.07,3.78,4.93,8.74,9.1,10.68A9.92,9.92,0,0,1,493.94,552Z"/><path class="cls-12" d="M702.21,553.54c4.18-1.95,7-6.91,9.1-10.69a103.12,103.12,0,0,0,7.15-16.46,74.66,74.66,0,0,0,3.72-18.48,49,49,0,0,0-.34-11.59l-2.87.83c0,.17.06.33.08.5a1.42,1.42,0,0,0-.82-.29c-2.43.66-4.88,1.24-7.36,1.66a129.52,129.52,0,0,1-2.77,26c-2,8.94-6.17,17.21-8.74,26A9.86,9.86,0,0,1,702.21,553.54Z"/><g class="cls-17"><path class="cls-11" d="M452.79,587.93a109.92,109.92,0,0,1-3.09,12.71l-.23.9a50.21,50.21,0,0,0,2-6.36,70.17,70.17,0,0,0,1.37-7.36Z"/><path class="cls-11" d="M453.44,578.7s0,.09,0,.14a1.23,1.23,0,0,0-1.78.61,47,47,0,0,0-2.36,6.47,1.45,1.45,0,0,0-.78.86c-.71,2.13-1.44,4.25-2.15,6.38a29.07,29.07,0,0,1-2.39,3.22c-.57.5-1.15,1-1.75,1.46a1.54,1.54,0,0,0,.57,2.79l-.11.24a1.56,1.56,0,0,0,.32,1.8,1.48,1.48,0,0,0,0,.85l.1.34-.1.36a1.42,1.42,0,0,0,.56,1.56c.13.58.27,1.16.44,1.72,0,0,0,.08,0,.11a1.1,1.1,0,0,0,.07.16l.09.15,0,.07a1.34,1.34,0,0,0,.36.34l-.61,2.36a1.5,1.5,0,0,0,2.5,1.45c4-4.36,6.19-10,7.67-15.67a71.42,71.42,0,0,0,2.23-17.75A1.49,1.49,0,0,0,453.44,578.7Zm-4,22.84.23-.9a109.92,109.92,0,0,0,3.09-12.71l0-.1a70.17,70.17,0,0,1-1.37,7.36A50.21,50.21,0,0,1,449.47,601.54Z"/></g><g class="cls-18"><path class="cls-10" d="M216.91,973.86c8.23.4,16.5.85,24.75.76,2.13-.34,4.25-.74,6.33-1.26C237.71,972.84,227.06,973.5,216.91,973.86Z"/><path class="cls-19" d="M289.38,969.47a8.54,8.54,0,0,0-3.39-4.26,63.62,63.62,0,0,0-21.12-8.78c-20.72-8.29-47.85-5.67-68.1-5.23-14.45.31-29,.16-43.4,1.41-14.8,1.29-31.74,4.36-42,16.17-6.38,7.38,3.69,18.05,10.41,11.94,18.53,13.61,44.1,11,66.64,10a254.18,254.18,0,0,0,37.94,1.14c2.41-.12,4.85-.28,7.31-.49,10.92.69,22.12.48,32.19-2.46q1.88-.41,3.7-.93a75.15,75.15,0,0,0,17.56-6.79C291.42,978.87,292.13,973,289.38,969.47Zm-72.47,4.4c10.15-.37,20.8-1,31.08-.49-2.08.51-4.2.92-6.33,1.26C233.41,974.71,225.14,974.26,216.91,973.86Z"/></g><path class="cls-20" d="M673.79,954.16c-7.21-8.45-19.22-11.63-29.72-13.47-15.08-2.64-30.56-2.61-45.79-1.57a259,259,0,0,0-25.83,3.06c-20.8-1.57-45.43-1.39-62.71,10.75a9.32,9.32,0,0,0-3.61,5.49,15.08,15.08,0,0,0-3.82,10.16c0,9.54,9.58,14.23,17.51,16.22,12.69,3.18,26.35,3.71,40.06,3.07,11.56,1.35,23.33,1.21,33.12,1,23.71-.51,54.82-2.69,73.75-18.84a7,7,0,0,0,1.33-1.51c1.38-.59,2.75-1.23,4.1-1.94C677,964.05,676.93,957.84,673.79,954.16Z"/><text class="cls-21" transform="translate(273.48 163)">Juego del</text><text class="cls-22" transform="translate(273.48 235.37)">ah<tspan class="cls-23" x="54.63" y="0">o</tspan><tspan class="cls-24" x="82.21" y="0">rc</tspan><tspan class="cls-25" x="135.43" y="0">a</tspan><tspan class="cls-24" x="162.04" y="0">do</tspan></text><path d="M220,183.15c0-2-.08-4.46-1.34-6.11s-2.69-3.32-4.78-3.67a8.34,8.34,0,0,0-4.35,0,8.94,8.94,0,0,0-5.42,4.61,8,8,0,0,0,2.83,10.81c3.58,2.1,8.81,1,10.81-2.83a7.26,7.26,0,0,1,.4-.69l-1.24,1.6a1.24,1.24,0,0,1,.21-.23l-1.6,1.24.09-.06c-.63.26-1.26.73-1.89,1,0,0,.05.18.08.18h-4.2s0-.2.07-.19c-.63-.27-1.26-.63-1.89-.9,0,0,0,0,.06,0L205,185a.41.41,0,0,1,.1.15l-.8-1.89a2.56,2.56,0,0,1,.1.39l-.28-2.1a12,12,0,0,1,.07,1.56,7.9,7.9,0,0,0,15.8,0Z"/><path d="M520.47,190s8.78-15.8,0-15.8c-10.53,0-10.53,15.8,0,15.8Z"/></g></g></svg>